<svg preserveAspectRatio="none" width="100%" height="100%" overflow="visible" style="display: block;" viewBox="0 0 92.8154 12.9033" fill="none" xmlns="http://www.w3.org/2000/svg">
<g id="Group 1597880428">
<g id="Group 1171279120">
<path id="Vector" d="M5.41338 12.9033C4.21837 12.9033 3.22652 12.736 2.43781 12.4015C1.64911 12.055 1.05161 11.607 0.645303 11.0574C0.239001 10.5078 0.0239001 9.92239 0 9.30112C0 9.20554 0.0358501 9.12191 0.107551 9.05022C0.191201 8.96659 0.286802 8.92477 0.394352 8.92477H2.65291C2.82021 8.92477 2.94569 8.95464 3.02934 9.01438C3.12494 9.07412 3.20859 9.15178 3.28029 9.24736C3.37589 9.42657 3.50734 9.59981 3.67464 9.76707C3.8539 9.93434 4.08095 10.0717 4.3558 10.1793C4.6426 10.2748 4.99513 10.3226 5.41338 10.3226C6.10648 10.3226 6.62631 10.2151 6.97286 10C7.33136 9.78499 7.51061 9.49228 7.51061 9.12191C7.51061 8.85906 7.41501 8.64401 7.22381 8.47674C7.03261 8.29753 6.72191 8.14221 6.29171 8.01079C5.87346 7.86742 5.3118 7.72405 4.60675 7.58068C3.69854 7.38952 2.92179 7.1446 2.27649 6.84591C1.64313 6.53528 1.15916 6.13504 0.824554 5.64519C0.489953 5.14339 0.322652 4.52213 0.322652 3.78138C0.322652 3.05258 0.525803 2.40145 0.932105 1.82797C1.35036 1.25449 1.92994 0.806456 2.67084 0.483874C3.41174 0.161291 4.29007 0 5.30583 0C6.13038 0 6.85336 0.107528 7.47476 0.322582C8.10812 0.537637 8.6399 0.824377 9.0701 1.1828C9.5003 1.54123 9.82295 1.92355 10.0381 2.32976C10.2651 2.72403 10.3846 3.11232 10.3966 3.49464C10.3966 3.59022 10.3607 3.67983 10.289 3.76346C10.2173 3.83514 10.1277 3.87099 10.0201 3.87099H7.65402C7.52256 3.87099 7.40904 3.84709 7.31344 3.7993C7.21784 3.75151 7.13419 3.67385 7.06249 3.56633C6.99079 3.30348 6.79959 3.07648 6.48888 2.88532C6.19013 2.68221 5.79578 2.58066 5.30583 2.58066C4.78003 2.58066 4.36775 2.67624 4.069 2.8674C3.78219 3.04661 3.63879 3.32738 3.63879 3.7097C3.63879 3.94865 3.71647 4.15773 3.87182 4.33694C4.03912 4.51615 4.308 4.67147 4.67845 4.80289C5.06085 4.93431 5.58068 5.07171 6.23793 5.21508C7.32539 5.41819 8.20372 5.67506 8.87292 5.98569C9.54213 6.28438 10.0321 6.67865 10.3428 7.16849C10.6535 7.64639 10.8088 8.24974 10.8088 8.97854C10.8088 9.79097 10.5758 10.4959 10.1098 11.0932C9.65565 11.6787 9.0223 12.1267 8.20969 12.4373C7.39709 12.748 6.46498 12.9033 5.41338 12.9033Z" fill="#7A4AE2"/>
</g>
<path id="Vector_2" d="M18.0858 12.3975C14.2227 12.3975 11.7288 7.08444 11.7288 2.97765C11.7288 -1.15357 16.7991 0.863535 18.1103 2.17449C19.4358 0.849218 24.4428 -1.15357 24.4428 2.97765C24.4428 7.08444 21.9733 12.3975 18.0858 12.3975ZM18.1103 10.1175C20.2374 10.1175 21.2887 7.97291 21.2887 5.5284C21.2887 3.10833 19.3554 3.42296 18.1347 4.64345C16.9187 3.42772 14.8829 3.10833 14.8829 5.5284C14.8829 7.97291 15.9342 10.1175 18.1103 10.1175Z" fill="#7A4AE2"/>
<path id="Vector_3" d="M83.8527 12.7375C83.7213 12.7375 83.6137 12.6957 83.5301 12.6121C83.4464 12.5285 83.4046 12.4209 83.4046 12.2895V0.640607C83.4046 0.509183 83.4464 0.401654 83.5301 0.318021C83.6137 0.234388 83.7213 0.192571 83.8527 0.192571H92.2237C92.3551 0.192571 92.4627 0.234388 92.5463 0.318021C92.63 0.401654 92.6718 0.509183 92.6718 0.640607V2.32522C92.6718 2.45664 92.63 2.56417 92.5463 2.6478C92.4627 2.73144 92.3551 2.77325 92.2237 2.77325H86.5056V5.19264H91.8293C91.9608 5.19264 92.0683 5.24043 92.152 5.33601C92.2356 5.41964 92.2774 5.52717 92.2774 5.6586V7.21776C92.2774 7.33723 92.2356 7.44476 92.152 7.54034C92.0683 7.62398 91.9608 7.66579 91.8293 7.66579H86.5056V10.1569H92.3671C92.4985 10.1569 92.6061 10.1987 92.6897 10.2823C92.7734 10.3659 92.8152 10.4735 92.8152 10.6049V12.2895C92.8152 12.4209 92.7734 12.5285 92.6897 12.6121C92.6061 12.6957 92.4985 12.7375 92.3671 12.7375H83.8527Z" fill="#7A4AE2"/>
<path id="Vector_4" d="M69.0246 12.7375C68.9051 12.7375 68.7975 12.6957 68.7019 12.6121C68.6183 12.5285 68.5764 12.4209 68.5764 12.2895V0.640607C68.5764 0.509183 68.6183 0.401654 68.7019 0.318021C68.7975 0.234388 68.9051 0.192571 69.0246 0.192571H70.9605C71.1517 0.192571 71.2951 0.246335 71.3907 0.353864C71.4982 0.449445 71.5639 0.527105 71.5878 0.586843L74.7426 6.25L77.8974 0.586843C77.9333 0.527105 77.993 0.449445 78.0767 0.353864C78.1723 0.246335 78.3216 0.192571 78.5248 0.192571H80.4428C80.5742 0.192571 80.6818 0.234388 80.7654 0.318021C80.861 0.401654 80.9088 0.509183 80.9088 0.640607V12.2895C80.9088 12.4209 80.861 12.5285 80.7654 12.6121C80.6818 12.6957 80.5742 12.7375 80.4428 12.7375H78.3097C78.1782 12.7375 78.0647 12.6957 77.9691 12.6121C77.8855 12.5285 77.8436 12.4209 77.8436 12.2895V5.56899L75.8181 9.31456C75.7703 9.42209 75.6986 9.51767 75.603 9.6013C75.5074 9.68494 75.376 9.72675 75.2087 9.72675H74.2766C74.1093 9.72675 73.9778 9.68494 73.8822 9.6013C73.7866 9.51767 73.709 9.42209 73.6492 9.31456L71.6237 5.56899V12.2895C71.6237 12.4209 71.5819 12.5285 71.4982 12.6121C71.4146 12.6957 71.307 12.7375 71.1756 12.7375H69.0246Z" fill="#7A4AE2"/>
<path id="Vector_5" d="M63.2125 12.7375C63.0811 12.7375 62.9735 12.6957 62.8899 12.6121C62.8062 12.5285 62.7644 12.4209 62.7644 12.2895V0.640607C62.7644 0.509183 62.8062 0.401654 62.8899 0.318021C62.9735 0.234388 63.0811 0.192571 63.2125 0.192571H65.6145C65.7459 0.192571 65.8535 0.234388 65.9371 0.318021C66.0208 0.401654 66.0626 0.509183 66.0626 0.640607V12.2895C66.0626 12.4209 66.0208 12.5285 65.9371 12.6121C65.8535 12.6957 65.7459 12.7375 65.6145 12.7375H63.2125Z" fill="#7A4AE2"/>
<path id="Vector_6" d="M54.6816 12.7375C54.5501 12.7375 54.4426 12.6957 54.3589 12.6121C54.2753 12.5285 54.2334 12.4209 54.2334 12.2895V3.00623H51.0428C50.9114 3.00623 50.8038 2.96441 50.7202 2.88078C50.6365 2.7852 50.5947 2.67767 50.5947 2.5582V0.640607C50.5947 0.509183 50.6365 0.401654 50.7202 0.318021C50.8038 0.234388 50.9114 0.192571 51.0428 0.192571H60.6864C60.8179 0.192571 60.9254 0.234388 61.0091 0.318021C61.0927 0.401654 61.1345 0.509183 61.1345 0.640607V2.5582C61.1345 2.67767 61.0927 2.7852 61.0091 2.88078C60.9254 2.96441 60.8179 3.00623 60.6864 3.00623H57.4958V12.2895C57.4958 12.4209 57.454 12.5285 57.3703 12.6121C57.2867 12.6957 57.1791 12.7375 57.0477 12.7375H54.6816Z" fill="#7A4AE2"/>
<path id="Vector_7" d="M40.6383 12.7247C40.5069 12.7247 40.3993 12.6829 40.3157 12.5993C40.232 12.5156 40.1902 12.4081 40.1902 12.2767V0.627768C40.1902 0.496344 40.232 0.388816 40.3157 0.305183C40.3993 0.22155 40.5069 0.179733 40.6383 0.179733H49.0093C49.1407 0.179733 49.2483 0.22155 49.3319 0.305183C49.4156 0.388816 49.4574 0.496344 49.4574 0.627768V2.31238C49.4574 2.4438 49.4156 2.55133 49.3319 2.63496C49.2483 2.7186 49.1407 2.76041 49.0093 2.76041H43.2912V5.1798H48.6149C48.7464 5.1798 48.8539 5.22759 48.9376 5.32317C49.0212 5.40681 49.0631 5.51433 49.0631 5.64576V7.20492C49.0631 7.3244 49.0212 7.43192 48.9376 7.5275C48.8539 7.61114 48.7464 7.65295 48.6149 7.65295H43.2912V10.144H49.1527C49.2841 10.144 49.3917 10.1858 49.4753 10.2695C49.559 10.3531 49.6008 10.4606 49.6008 10.5921V12.2767C49.6008 12.4081 49.559 12.5156 49.4753 12.5993C49.3917 12.6829 49.2841 12.7247 49.1527 12.7247H40.6383Z" fill="#7A4AE2"/>
<path id="Vector_8" d="M25.813 12.7247C25.6935 12.7247 25.5859 12.6829 25.4903 12.5993C25.4067 12.5156 25.3648 12.4081 25.3648 12.2767V0.627768C25.3648 0.496344 25.4067 0.388816 25.4903 0.305183C25.5859 0.22155 25.6935 0.179733 25.813 0.179733H27.7489C27.9401 0.179733 28.0834 0.233497 28.179 0.341026C28.2866 0.436607 28.3523 0.514266 28.3762 0.574004L31.531 6.23716L34.6858 0.574004C34.7217 0.514266 34.7814 0.436607 34.8651 0.341026C34.9607 0.233497 35.11 0.179733 35.3132 0.179733H37.2311C37.3626 0.179733 37.4701 0.22155 37.5538 0.305183C37.6494 0.388816 37.6972 0.496344 37.6972 0.627768V12.2767C37.6972 12.4081 37.6494 12.5156 37.5538 12.5993C37.4701 12.6829 37.3626 12.7247 37.2311 12.7247H35.0981C34.9666 12.7247 34.8531 12.6829 34.7575 12.5993C34.6738 12.5156 34.632 12.4081 34.632 12.2767V5.55615L32.6065 9.30172C32.5587 9.40925 32.487 9.50483 32.3914 9.58847C32.2958 9.6721 32.1644 9.71391 31.9971 9.71391H31.065C30.8977 9.71391 30.7662 9.6721 30.6706 9.58847C30.575 9.50483 30.4973 9.40925 30.4376 9.30172L28.4121 5.55615V12.2767C28.4121 12.4081 28.3702 12.5156 28.2866 12.5993C28.2029 12.6829 28.0954 12.7247 27.9639 12.7247H25.813Z" fill="#7A4AE2"/>
</g>
</svg>
