<svg xmlns="http://www.w3.org/2000/svg" width="22" height="22" viewBox="0 0 22 22" fill="none">
<path d="M18.3333 8.25H14.6667C13.6541 8.25 12.8333 7.42919 12.8333 6.41667V2.75M18.3333 8.09273V15.5833C18.3333 16.5959 17.5125 17.4167 16.5 17.4167H9.16666C8.15414 17.4167 7.33333 16.5959 7.33333 15.5833V4.58333C7.33333 3.57081 8.15414 2.75 9.16666 2.75H12.9906C13.4768 2.75 13.9431 2.94315 14.287 3.28697L17.7963 6.79636C18.1402 7.14018 18.3333 7.60649 18.3333 8.09273Z" stroke="white" stroke-width="1.5" stroke-linecap="round"/>
<path d="M7.33333 5.5H6.41666C5.40414 5.5 4.58333 6.32081 4.58333 7.33333V18.3333C4.58333 19.3459 5.40414 20.1667 6.41666 20.1667H13.75C14.7625 20.1667 15.5833 19.3459 15.5833 18.3333V17.4167" stroke="white" stroke-width="1.5" stroke-linecap="round"/>
</svg>