<svg xmlns="http://www.w3.org/2000/svg" width="31" height="31" viewBox="0 0 31 31" fill="none">
  <path d="M12.8624 21.6413C12.8624 22.0548 13.0267 22.4514 13.3191 22.7439C13.6115 23.0363 14.0082 23.2006 14.4217 23.2006H22.9652C23.4702 23.2006 23.939 23.4626 24.2037 23.8927C24.9722 25.1415 26.8965 24.5969 26.8965 23.1305V15.7937C26.8965 15.3802 26.7322 14.9835 26.4398 14.6911C26.1473 14.3987 25.7507 14.2344 25.3371 14.2344H14.4217C14.0082 14.2344 13.6115 14.3987 13.3191 14.6911C13.0267 14.9835 12.8624 15.3802 12.8624 15.7937V21.6413Z" fill="white" stroke="#7A4AE2" stroke-width="2" stroke-linecap="round" stroke-linejoin="round"/>
  <path d="M24.7374 14.8327C24.7374 15.469 24.4846 16.0791 24.0347 16.529C23.5848 16.9789 22.9747 17.2317 22.3384 17.2317H9.19467C8.41773 17.2317 7.69642 17.6348 7.28924 18.2964C6.1069 20.2177 3.14648 19.3798 3.14648 17.1239V5.83649C3.14648 5.20024 3.39923 4.59005 3.84913 4.14015C4.29903 3.69025 4.90922 3.4375 5.54547 3.4375H22.3384C22.9747 3.4375 23.5848 3.69025 24.0347 4.14015C24.4846 4.59005 24.7374 5.20024 24.7374 5.83649V14.8327Z" fill="#7A4AE2" stroke="#7A4AE2" stroke-width="2" stroke-linecap="round" stroke-linejoin="round"/>
  <path d="M7.46484 10.9922H19.3398" stroke="white" stroke-width="1.5" stroke-linecap="round"/>
</svg>