<svg xmlns="http://www.w3.org/2000/svg" width="31" height="30" viewBox="0 0 31 30" fill="none">
  <path d="M13.3819 21.2038C13.3819 21.6173 13.5462 22.0139 13.8386 22.3064C14.1311 22.5988 14.5277 22.7631 14.9413 22.7631H23.4847C23.9897 22.7631 24.4586 23.0251 24.7232 23.4552C25.4917 24.704 27.416 24.1594 27.416 22.693V15.3562C27.416 14.9427 27.2517 14.546 26.9593 14.2536C26.6669 13.9612 26.2702 13.7969 25.8567 13.7969H14.9413C14.5277 13.7969 14.1311 13.9612 13.8386 14.2536C13.5462 14.546 13.3819 14.9427 13.3819 15.3562V21.2038Z" fill="white" stroke="#E1D9FF" stroke-width="2" stroke-linecap="round" stroke-linejoin="round"/>
  <path d="M25.2569 14.3952C25.2569 15.0315 25.0042 15.6416 24.5543 16.0915C24.1044 16.5414 23.4942 16.7942 22.8579 16.7942H9.7142C8.93726 16.7942 8.21596 17.1973 7.80877 17.8589C6.62643 19.7802 3.66602 18.9423 3.66602 16.6864V5.39899C3.66602 4.76274 3.91877 4.15255 4.36866 3.70265C4.81856 3.25275 5.42875 3 6.06501 3H22.8579C23.4942 3 24.1044 3.25275 24.5543 3.70265C25.0042 4.15255 25.2569 4.76274 25.2569 5.39899V14.3952Z" fill="white" stroke="#E1D9FF" stroke-width="2" stroke-linecap="round" stroke-linejoin="round"/>
  <path d="M7.98438 10.5547H19.8594" stroke="#E1D9FF" stroke-width="1.5" stroke-linecap="round"/>
</svg>