<svg width="30" height="24" viewBox="0 0 30 24" fill="none" xmlns="http://www.w3.org/2000/svg">
<path fill-rule="evenodd" clip-rule="evenodd" d="M22.6642 13.5256C25.2886 12.5266 27.1413 10.0958 27.1413 7.25571C27.1413 3.52464 23.9439 0.5 19.9998 0.5C16.0556 0.5 12.8583 3.52464 12.8583 7.25571C12.8583 10.0958 14.7109 12.5266 17.3354 13.5256C13.9681 14.3651 11.2673 16.758 10.1413 19.8452C9.51969 21.5494 11.0441 23.0636 12.8582 23.0636H27.1415C28.9555 23.0636 30.48 21.5494 29.8584 19.8452C28.7324 16.758 26.0315 14.3651 22.6642 13.5256Z" fill="white"/>
<path fill-rule="evenodd" clip-rule="evenodd" d="M22.002 11.7861C21.2419 12.0754 20.7577 12.8248 20.8062 13.6366C20.8547 14.4484 21.4248 15.1348 22.2139 15.3315C25.0109 16.0288 27.2059 18.0047 28.1098 20.483C28.1466 20.5839 28.1397 20.6386 28.1333 20.6676C28.1251 20.7048 28.1003 20.7698 28.0272 20.8513C27.8688 21.028 27.5482 21.2024 27.1415 21.2024H12.8582C12.4515 21.2024 12.1309 21.028 11.9725 20.8513C11.8994 20.7698 11.8746 20.7048 11.8664 20.6676C11.86 20.6386 11.8531 20.5839 11.8899 20.483C12.7938 18.0047 14.9887 16.0289 17.7857 15.3315C18.5748 15.1348 19.1449 14.4485 19.1934 13.6366C19.2419 12.8248 18.7577 12.0754 17.9975 11.7861C16.0222 11.0342 14.7196 9.24823 14.7196 7.25571C14.7196 4.64856 16.9849 2.36124 19.9998 2.36124C23.0147 2.36124 25.28 4.64856 25.28 7.25571C25.28 9.24822 23.9774 11.0342 22.002 11.7861ZM25.013 14.4134C24.2793 14.0321 23.4919 13.7319 22.6642 13.5256C23.4529 13.2254 24.1719 12.7958 24.7918 12.2648C26.2348 11.0286 27.1413 9.24232 27.1413 7.25571C27.1413 3.52464 23.9439 0.5 19.9998 0.5C18.6458 0.5 17.3799 0.85642 16.3011 1.47548C16.3012 1.47531 16.3012 1.47513 16.3013 1.47495C15.8776 1.718 15.4828 2.00156 15.1228 2.31994L15.1235 2.31994C13.7296 3.55285 12.8583 5.30803 12.8583 7.25571C12.8583 9.24233 13.7647 11.0287 15.2078 12.2648C15.8277 12.7959 16.5467 13.2254 17.3354 13.5256C16.5077 13.7319 15.7203 14.0322 14.9866 14.4135C12.7355 15.5834 10.9905 17.5169 10.1413 19.8452C9.51969 21.5494 11.0441 23.0636 12.8582 23.0636H27.1415C28.9555 23.0636 30.48 21.5494 29.8584 19.8452C29.0091 17.5169 27.2641 15.5834 25.013 14.4134Z" fill="#7A4AE2"/>
<path fill-rule="evenodd" clip-rule="evenodd" d="M12.6642 13.5256C15.2886 12.5266 17.1413 10.0958 17.1413 7.25571C17.1413 3.52464 13.9439 0.5 9.99978 0.5C6.05563 0.5 2.85827 3.52464 2.85827 7.25571C2.85827 10.0958 4.71095 12.5266 7.33541 13.5256C3.96809 14.3651 1.2673 16.758 0.141276 19.8452C-0.480313 21.5494 1.04415 23.0636 2.85819 23.0636H17.1415C18.9555 23.0636 20.48 21.5494 19.8584 19.8452C18.7324 16.758 16.0315 14.3651 12.6642 13.5256Z" fill="#7A4AE2"/>
<path fill-rule="evenodd" clip-rule="evenodd" d="M12.002 11.7861C11.2419 12.0754 10.7577 12.8248 10.8062 13.6366C10.8547 14.4484 11.4248 15.1348 12.2139 15.3315C15.0109 16.0288 17.2059 18.0047 18.1098 20.483C18.1466 20.5839 18.1397 20.6386 18.1333 20.6676C18.1251 20.7048 18.1003 20.7698 18.0272 20.8513C17.8688 21.028 17.5482 21.2024 17.1415 21.2024H2.85819C2.45149 21.2024 2.13088 21.028 1.97249 20.8513C1.8994 20.7698 1.87456 20.7048 1.86638 20.6676C1.86 20.6386 1.85305 20.5839 1.88988 20.483C2.79379 18.0047 4.98873 16.0289 7.78568 15.3315C8.57484 15.1348 9.14487 14.4485 9.19338 13.6366C9.24189 12.8248 8.75766 12.0754 7.99755 11.7861C6.0222 11.0342 4.71956 9.24823 4.71956 7.25571C4.71956 4.64856 6.98489 2.36124 9.99978 2.36124C13.0147 2.36124 15.28 4.64856 15.28 7.25571C15.28 9.24822 13.9774 11.0342 12.002 11.7861ZM15.013 14.4134C14.2793 14.0321 13.4919 13.7319 12.6642 13.5256C13.4529 13.2254 14.1719 12.7958 14.7918 12.2648C16.2348 11.0286 17.1413 9.24232 17.1413 7.25571C17.1413 3.52464 13.9439 0.5 9.99978 0.5C8.64585 0.5 7.37991 0.85642 6.30111 1.47548C6.30116 1.47531 6.30121 1.47513 6.30126 1.47495C5.87758 1.718 5.48276 2.00156 5.12279 2.31994L5.12354 2.31994C3.72956 3.55285 2.85827 5.30803 2.85827 7.25571C2.85827 9.24233 3.76474 11.0287 5.20776 12.2648C5.82772 12.7959 6.54671 13.2254 7.33541 13.5256C6.50772 13.7319 5.72029 14.0322 4.98663 14.4135C2.73552 15.5834 0.990519 17.5169 0.141276 19.8452C-0.480313 21.5494 1.04415 23.0636 2.85819 23.0636H17.1415C18.9555 23.0636 20.48 21.5494 19.8584 19.8452C19.0091 17.5169 17.2641 15.5834 15.013 14.4134Z" fill="#7A4AE2"/>
</svg>
