<svg width="30" height="23" viewBox="0 0 30 23" fill="none" xmlns="http://www.w3.org/2000/svg">
<path fill-rule="evenodd" clip-rule="evenodd" d="M22.6642 13.0256C25.2886 12.0266 27.1413 9.59583 27.1413 6.75571C27.1413 3.02464 23.9439 0 19.9998 0C16.0556 0 12.8583 3.02464 12.8583 6.75571C12.8583 9.59584 14.7109 12.0266 17.3354 13.0256C13.9681 13.8651 11.2673 16.258 10.1413 19.3452C9.51969 21.0494 11.0441 22.5636 12.8582 22.5636H27.1415C28.9555 22.5636 30.48 21.0494 29.8584 19.3452C28.7324 16.258 26.0315 13.8651 22.6642 13.0256Z" fill="white"/>
<path fill-rule="evenodd" clip-rule="evenodd" d="M22.002 11.2861C21.2419 11.5754 20.7577 12.3248 20.8062 13.1366C20.8547 13.9484 21.4248 14.6348 22.2139 14.8315C25.0109 15.5288 27.2059 17.5047 28.1098 19.983C28.1466 20.0839 28.1397 20.1386 28.1333 20.1676C28.1251 20.2048 28.1003 20.2698 28.0272 20.3513C27.8688 20.528 27.5482 20.7024 27.1415 20.7024H12.8582C12.4515 20.7024 12.1309 20.528 11.9725 20.3513C11.8994 20.2698 11.8746 20.2048 11.8664 20.1676C11.86 20.1386 11.8531 20.0839 11.8899 19.983C12.7938 17.5047 14.9887 15.5289 17.7857 14.8315C18.5748 14.6348 19.1449 13.9485 19.1934 13.1366C19.2419 12.3248 18.7577 11.5754 17.9975 11.2861C16.0222 10.5342 14.7196 8.74823 14.7196 6.75571C14.7196 4.14856 16.9849 1.86124 19.9998 1.86124C23.0147 1.86124 25.28 4.14856 25.28 6.75571C25.28 8.74822 23.9774 10.5342 22.002 11.2861ZM25.013 13.9134C24.2793 13.5321 23.4919 13.2319 22.6642 13.0256C23.4529 12.7254 24.1719 12.2958 24.7918 11.7648C26.2348 10.5286 27.1413 8.74232 27.1413 6.75571C27.1413 3.02464 23.9439 0 19.9998 0C18.6458 0 17.3799 0.35642 16.3011 0.975485C16.3012 0.975307 16.3012 0.975131 16.3013 0.974953C15.8776 1.218 15.4828 1.50156 15.1228 1.81994L15.1235 1.81994C13.7296 3.05285 12.8583 4.80803 12.8583 6.75571C12.8583 8.74233 13.7647 10.5287 15.2078 11.7648C15.8277 12.2959 16.5467 12.7254 17.3354 13.0256C16.5077 13.2319 15.7203 13.5322 14.9866 13.9135C12.7355 15.0834 10.9905 17.0169 10.1413 19.3452C9.51969 21.0494 11.0441 22.5636 12.8582 22.5636H27.1415C28.9555 22.5636 30.48 21.0494 29.8584 19.3452C29.0091 17.0169 27.2641 15.0834 25.013 13.9134Z" fill="#E1D9FF"/>
<path fill-rule="evenodd" clip-rule="evenodd" d="M12.6642 13.0256C15.2886 12.0266 17.1413 9.59583 17.1413 6.75571C17.1413 3.02464 13.9439 0 9.99978 0C6.05563 0 2.85827 3.02464 2.85827 6.75571C2.85827 9.59584 4.71095 12.0266 7.33541 13.0256C3.96809 13.8651 1.2673 16.258 0.141276 19.3452C-0.480313 21.0494 1.04415 22.5636 2.85819 22.5636H17.1415C18.9555 22.5636 20.48 21.0494 19.8584 19.3452C18.7324 16.258 16.0315 13.8651 12.6642 13.0256Z" fill="#E1D9FF"/>
<path fill-rule="evenodd" clip-rule="evenodd" d="M12.002 11.2861C11.2419 11.5754 10.7577 12.3248 10.8062 13.1366C10.8547 13.9484 11.4248 14.6348 12.2139 14.8315C15.0109 15.5288 17.2059 17.5047 18.1098 19.983C18.1466 20.0839 18.1397 20.1386 18.1333 20.1676C18.1251 20.2048 18.1003 20.2698 18.0272 20.3513C17.8688 20.528 17.5482 20.7024 17.1415 20.7024H2.85819C2.45149 20.7024 2.13088 20.528 1.97249 20.3513C1.8994 20.2698 1.87456 20.2048 1.86638 20.1676C1.86 20.1386 1.85305 20.0839 1.88988 19.983C2.79379 17.5047 4.98873 15.5289 7.78568 14.8315C8.57484 14.6348 9.14487 13.9485 9.19338 13.1366C9.24189 12.3248 8.75766 11.5754 7.99755 11.2861C6.0222 10.5342 4.71956 8.74823 4.71956 6.75571C4.71956 4.14856 6.98489 1.86124 9.99978 1.86124C13.0147 1.86124 15.28 4.14856 15.28 6.75571C15.28 8.74822 13.9774 10.5342 12.002 11.2861ZM15.013 13.9134C14.2793 13.5321 13.4919 13.2319 12.6642 13.0256C13.4529 12.7254 14.1719 12.2958 14.7918 11.7648C16.2348 10.5286 17.1413 8.74232 17.1413 6.75571C17.1413 3.02464 13.9439 0 9.99978 0C8.64585 0 7.37991 0.35642 6.30111 0.975485C6.30116 0.975307 6.30121 0.975131 6.30126 0.974953C5.87758 1.218 5.48276 1.50156 5.12279 1.81994L5.12354 1.81994C3.72956 3.05285 2.85827 4.80803 2.85827 6.75571C2.85827 8.74233 3.76474 10.5287 5.20776 11.7648C5.82772 12.2959 6.54671 12.7254 7.33541 13.0256C6.50772 13.2319 5.72029 13.5322 4.98663 13.9135C2.73552 15.0834 0.990519 17.0169 0.141276 19.3452C-0.480313 21.0494 1.04415 22.5636 2.85819 22.5636H17.1415C18.9555 22.5636 20.48 21.0494 19.8584 19.3452C19.0091 17.0169 17.2641 15.0834 15.013 13.9134Z" fill="#E1D9FF"/>
</svg>
