<svg width="30" height="27" viewBox="0 0 30 27" fill="none" xmlns="http://www.w3.org/2000/svg">
<path d="M8.54102 11.4546H22.4401V26.2821H8.54102V11.4546Z" fill="white"/>
<path fill-rule="evenodd" clip-rule="evenodd" d="M20.8167 13.078H10.1644V24.6587H20.8167V13.078ZM8.54102 11.4546V26.2821H22.4401V11.4546H8.54102Z" fill="#E1D9FF"/>
<path fill-rule="evenodd" clip-rule="evenodd" d="M16.7931 5.11507C15.8746 4.55214 14.7178 4.55214 13.7992 5.11507L8.76647 8.1993L5.11703 11.0548C4.42306 11.5978 4.01758 12.4299 4.01758 13.3111V22.0034C4.01758 24.6404 6.15532 26.7782 8.79237 26.7782H8.95808C10.5403 26.7782 11.823 25.4955 11.823 23.9133V18.194C11.823 16.6118 13.1056 15.3291 14.6878 15.3291H15.311C16.8932 15.3291 18.1759 16.6118 18.1759 18.194V23.9133C18.1759 25.4955 19.4585 26.7782 21.0407 26.7782H21.2064C23.8434 26.7782 25.9812 24.6404 25.9812 22.0034V13.1965C25.9812 12.3811 25.6338 11.6044 25.026 11.0609L22.0184 8.37146C21.8903 8.25692 21.7522 8.15414 21.6057 8.06435L16.7931 5.11507Z" fill="#E1D9FF"/>
<path fill-rule="evenodd" clip-rule="evenodd" d="M9.69382 9.53502L6.11743 12.3334C5.81672 12.5687 5.64101 12.9293 5.64101 13.3111V22.0034C5.64101 23.7438 7.05192 25.1547 8.79236 25.1547H8.95808C9.64371 25.1547 10.1995 24.5989 10.1995 23.9133V18.194C10.1995 15.7152 12.209 13.7057 14.6878 13.7057H15.311C17.7898 13.7057 19.7993 15.7152 19.7993 18.194V23.9133C19.7993 24.5989 20.3551 25.1547 21.0407 25.1547H21.2064C22.9468 25.1547 24.3578 23.7438 24.3578 22.0034V13.1965C24.3578 12.8432 24.2072 12.5066 23.9438 12.2711L20.9363 9.58162C20.8808 9.53198 20.8209 9.48744 20.7574 9.44853L15.9449 6.49925C15.5468 6.25532 15.0456 6.25532 14.6475 6.49925L9.69382 9.53502ZM13.7992 5.11507C14.7178 4.55214 15.8746 4.55214 16.7931 5.11507L21.6057 8.06435C21.7522 8.15414 21.8903 8.25692 22.0184 8.37146L25.026 11.0609C25.6338 11.6044 25.9812 12.3811 25.9812 13.1965V22.0034C25.9812 24.6404 23.8434 26.7782 21.2064 26.7782H21.0407C19.4585 26.7782 18.1759 25.4955 18.1759 23.9133V18.194C18.1759 16.6118 16.8932 15.3291 15.311 15.3291H14.6878C13.1056 15.3291 11.823 16.6118 11.823 18.194V23.9133C11.823 25.4955 10.5403 26.7782 8.95808 26.7782H8.79236C6.15532 26.7782 4.01758 24.6404 4.01758 22.0034V13.3111C4.01758 12.4299 4.42306 11.5978 5.11703 11.0548L8.76647 8.1993L13.7992 5.11507Z" fill="#E1D9FF"/>
<path fill-rule="evenodd" clip-rule="evenodd" d="M13.5442 1.74934C14.4004 1.08811 15.5971 1.08811 16.4532 1.74934L28.3255 10.9183C29.362 11.7188 29.5511 13.2051 28.7477 14.2381C27.9444 15.271 26.453 15.4594 25.4164 14.6589L16.3798 7.67985C15.5663 7.05154 14.4312 7.05154 13.6176 7.67985L4.58103 14.6589C3.5445 15.4594 2.05302 15.271 1.24971 14.2381C0.446405 13.2051 0.635466 11.7188 1.67199 10.9183L13.5442 1.74934Z" fill="#E1D9FF"/>
<path fill-rule="evenodd" clip-rule="evenodd" d="M13.0851 1.153C14.2125 0.282335 15.7875 0.282335 16.9149 1.153L28.7871 10.322C30.1531 11.377 30.4032 13.3376 29.3436 14.7002C28.2851 16.0612 26.3218 16.3085 24.9573 15.2547L15.9207 8.27571C15.3784 7.85684 14.6216 7.85684 14.0793 8.27571L5.04267 15.2547C3.6782 16.3085 1.71488 16.0612 0.656441 14.7002C-0.40322 13.3376 -0.153144 11.377 1.21289 10.322L13.0851 1.153ZM15.9941 2.34519C15.4092 1.89341 14.5908 1.89341 14.0059 2.34519L2.13363 11.5142C1.42662 12.0602 1.29857 13.0721 1.84553 13.7754C2.3937 14.4803 3.41335 14.6098 4.12193 14.0625L13.1585 7.08351C14.2433 6.24576 15.7567 6.24577 16.8415 7.08351L25.8781 14.0625C26.5867 14.6098 27.6063 14.4803 28.1545 13.7754C28.7014 13.0721 28.5734 12.0602 27.8664 11.5142L15.9941 2.34519Z" fill="#E1D9FF"/>
</svg>
