<svg width="30" height="27" viewBox="0 0 30 27" fill="none" xmlns="http://www.w3.org/2000/svg">
<path d="M8.54102 10.9546H22.4401V25.7821H8.54102V10.9546Z" fill="white"/>
<path fill-rule="evenodd" clip-rule="evenodd" d="M20.8167 12.578H10.1644V24.1587H20.8167V12.578ZM8.54102 10.9546V25.7821H22.4401V10.9546H8.54102Z" fill="#7A4AE2"/>
<path fill-rule="evenodd" clip-rule="evenodd" d="M16.7931 4.61507C15.8746 4.05214 14.7178 4.05214 13.7992 4.61507L8.76647 7.6993L5.11703 10.5548C4.42306 11.0978 4.01758 11.9299 4.01758 12.8111V21.5034C4.01758 24.1404 6.15532 26.2782 8.79237 26.2782H8.95808C10.5403 26.2782 11.823 24.9955 11.823 23.4133V17.694C11.823 16.1118 13.1056 14.8291 14.6878 14.8291H15.311C16.8932 14.8291 18.1759 16.1118 18.1759 17.694V23.4133C18.1759 24.9955 19.4585 26.2782 21.0407 26.2782H21.2064C23.8434 26.2782 25.9812 24.1404 25.9812 21.5034V12.6965C25.9812 11.8811 25.6338 11.1044 25.026 10.5609L22.0184 7.87146C21.8903 7.75692 21.7522 7.65414 21.6057 7.56435L16.7931 4.61507Z" fill="#7A4AE2"/>
<path fill-rule="evenodd" clip-rule="evenodd" d="M9.69382 9.03502L6.11743 11.8334C5.81672 12.0687 5.64101 12.4293 5.64101 12.8111V21.5034C5.64101 23.2438 7.05192 24.6547 8.79236 24.6547H8.95808C9.64371 24.6547 10.1995 24.0989 10.1995 23.4133V17.694C10.1995 15.2152 12.209 13.2057 14.6878 13.2057H15.311C17.7898 13.2057 19.7993 15.2152 19.7993 17.694V23.4133C19.7993 24.0989 20.3551 24.6547 21.0407 24.6547H21.2064C22.9468 24.6547 24.3578 23.2438 24.3578 21.5034V12.6965C24.3578 12.3432 24.2072 12.0066 23.9438 11.7711L20.9363 9.08162C20.8808 9.03198 20.8209 8.98744 20.7574 8.94853L15.9449 5.99925C15.5468 5.75532 15.0456 5.75532 14.6475 5.99925L9.69382 9.03502ZM13.7992 4.61507C14.7178 4.05214 15.8746 4.05214 16.7931 4.61507L21.6057 7.56435C21.7522 7.65414 21.8903 7.75692 22.0184 7.87146L25.026 10.5609C25.6338 11.1044 25.9812 11.8811 25.9812 12.6965V21.5034C25.9812 24.1404 23.8434 26.2782 21.2064 26.2782H21.0407C19.4585 26.2782 18.1759 24.9955 18.1759 23.4133V17.694C18.1759 16.1118 16.8932 14.8291 15.311 14.8291H14.6878C13.1056 14.8291 11.823 16.1118 11.823 17.694V23.4133C11.823 24.9955 10.5403 26.2782 8.95808 26.2782H8.79236C6.15532 26.2782 4.01758 24.1404 4.01758 21.5034V12.8111C4.01758 11.9299 4.42306 11.0978 5.11703 10.5548L8.76647 7.6993L13.7992 4.61507Z" fill="#7A4AE2"/>
<path fill-rule="evenodd" clip-rule="evenodd" d="M13.5442 1.24934C14.4004 0.588112 15.5971 0.588112 16.4532 1.24934L28.3255 10.4183C29.362 11.2188 29.5511 12.7051 28.7477 13.7381C27.9444 14.771 26.453 14.9594 25.4164 14.1589L16.3798 7.17985C15.5663 6.55154 14.4312 6.55154 13.6176 7.17985L4.58103 14.1589C3.5445 14.9594 2.05302 14.771 1.24971 13.7381C0.446405 12.7051 0.635466 11.2188 1.67199 10.4183L13.5442 1.24934Z" fill="#7A4AE2"/>
<path fill-rule="evenodd" clip-rule="evenodd" d="M13.0851 0.652996C14.2125 -0.217665 15.7875 -0.217665 16.9149 0.652996L28.7871 9.82198C30.1531 10.877 30.4032 12.8376 29.3436 14.2002C28.2851 15.5612 26.3218 15.8085 24.9573 14.7547L15.9207 7.77571C15.3784 7.35684 14.6216 7.35684 14.0793 7.77571L5.04267 14.7547C3.6782 15.8085 1.71488 15.5612 0.656441 14.2002C-0.40322 12.8376 -0.153144 10.877 1.21289 9.82198L13.0851 0.652996ZM15.9941 1.84519C15.4092 1.39341 14.5908 1.39341 14.0059 1.84519L2.13363 11.0142C1.42662 11.5602 1.29857 12.5721 1.84553 13.2754C2.3937 13.9803 3.41335 14.1098 4.12193 13.5625L13.1585 6.58351C14.2433 5.74576 15.7567 5.74577 16.8415 6.58351L25.8781 13.5625C26.5867 14.1098 27.6063 13.9803 28.1545 13.2754C28.7014 12.5721 28.5734 11.5602 27.8664 11.0142L15.9941 1.84519Z" fill="#7A4AE2"/>
</svg>
