<svg width="23" height="26" viewBox="0 0 23 26" fill="none" xmlns="http://www.w3.org/2000/svg">
<path fill-rule="evenodd" clip-rule="evenodd" d="M14.1416 14.5452C17.0723 13.4297 19.1411 10.7153 19.1411 7.54386C19.1411 3.3775 15.5707 0 11.1664 0C6.7621 0 3.19173 3.3775 3.19173 7.54386C3.19173 10.7153 5.26054 13.4297 8.19118 14.5452C4.43102 15.4827 1.41514 18.1548 0.157758 21.6021C-0.536347 23.5051 1.16596 25.196 3.19164 25.196H19.1412C21.1669 25.196 22.8692 23.5051 22.1751 21.6021C20.9177 18.1547 17.9018 15.4826 14.1416 14.5452Z" fill="#7A4AE2"/>
<path fill-rule="evenodd" clip-rule="evenodd" d="M13.4022 12.6028C12.5535 12.9258 12.0127 13.7626 12.0669 14.6692C12.1211 15.5757 12.7576 16.3421 13.6388 16.5618C16.7621 17.3405 19.2132 19.5469 20.2225 22.3142C20.2636 22.427 20.2559 22.488 20.2488 22.5204C20.2396 22.562 20.2119 22.6345 20.1303 22.7256C19.9534 22.9229 19.5954 23.1176 19.1412 23.1176H3.19164C2.73749 23.1176 2.37948 22.9229 2.2026 22.7256C2.12099 22.6345 2.09325 22.562 2.08412 22.5204C2.07699 22.488 2.06923 22.427 2.11036 22.3142C3.11972 19.5469 5.57073 17.3405 8.69398 16.5618C9.57521 16.3421 10.2117 15.5757 10.2659 14.6692C10.3201 13.7626 9.77935 12.9259 8.93057 12.6028C6.72477 11.7632 5.27015 9.76883 5.27015 7.54386C5.27015 4.63255 7.79977 2.07837 11.1664 2.07837C14.533 2.07837 17.0626 4.63255 17.0626 7.54386C17.0626 9.76882 15.608 11.7632 13.4022 12.6028ZM16.7644 15.5366C15.9452 15.1108 15.0659 14.7756 14.1416 14.5452C15.0223 14.2099 15.8252 13.7303 16.5175 13.1373C18.1288 11.757 19.1411 9.76223 19.1411 7.54386C19.1411 3.3775 15.5707 0 11.1664 0C9.65465 0 8.24115 0.397924 7.03657 1.08909C7.0366 1.08896 7.03664 1.08884 7.03667 1.08872C6.56357 1.36012 6.12268 1.67676 5.72071 2.03228L5.72124 2.03228C4.16465 3.40903 3.19173 5.36896 3.19173 7.54386C3.19173 9.76224 4.20395 11.757 5.81531 13.1373C6.5076 13.7303 7.31047 14.21 8.19118 14.5452C7.26693 14.7756 6.38764 15.1109 5.56839 15.5366C3.05465 16.8431 1.10608 19.0021 0.157758 21.6021C-0.536348 23.5051 1.16596 25.196 3.19164 25.196H19.1412C21.1669 25.196 22.8692 23.5051 22.1751 21.6021C21.2268 19.0021 19.2782 16.8431 16.7644 15.5366Z" fill="#7A4AE2"/>
</svg>
