<svg xmlns="http://www.w3.org/2000/svg" width="24" height="24" viewBox="0 0 24 24" fill="none">
  <path d="M20 9H16C14.8954 9 14 8.10457 14 7V3M20 8.82843V17C20 18.1046 19.1046 19 18 19H10C8.89543 19 8 18.1046 8 17V5C8 3.89543 8.89543 3 10 3H14.1716C14.702 3 15.2107 3.21071 15.5858 3.58579L19.4142 7.41421C19.7893 7.78929 20 8.29799 20 8.82843Z" stroke="white" stroke-width="1.5" stroke-linecap="round"/>
  <path d="M8 6H7C5.89543 6 5 6.89543 5 8V20C5 21.1046 5.89543 22 7 22H15C16.1046 22 17 21.1046 17 20V19" stroke="white" stroke-width="1.5" stroke-linecap="round"/>
</svg>