<svg preserveAspectRatio="none" width="100%" height="100%" overflow="visible" style="display: block;" viewBox="0 0 16.3477 16.3477" fill="none" xmlns="http://www.w3.org/2000/svg">
<g id="hourglass_bottom">
<mask id="mask0_0_12" style="mask-type:alpha" maskUnits="userSpaceOnUse" x="0" y="0" width="17" height="17">
<rect id="Bounding box" width="16.3477" height="16.3477" fill="var(--fill-0, #D9D9D9)"/>
</mask>
<g mask="url(#mask0_0_12)">
<path id="hourglass_bottom_2" d="M8.17326 7.49325C8.92253 7.49325 9.56394 7.22646 10.0975 6.69289C10.6311 6.15932 10.8979 5.5179 10.8979 4.76864V2.72518H5.44865V4.76864C5.44865 5.5179 5.71543 6.15932 6.249 6.69289C6.78257 7.22646 7.42399 7.49325 8.17326 7.49325ZM3.40519 14.9859C3.2122 14.9859 3.05043 14.9206 2.91987 14.7901C2.78932 14.6595 2.72404 14.4978 2.72404 14.3048C2.72404 14.1118 2.78932 13.95 2.91987 13.8194C3.05043 13.6889 3.2122 13.6236 3.40519 13.6236H4.08634V11.5802C4.08634 10.8877 4.24812 10.2377 4.57167 9.63036C4.89521 9.023 5.34648 8.53768 5.92546 8.1744C5.34648 7.81112 4.89521 7.3258 4.57167 6.71843C4.24812 6.11107 4.08634 5.46114 4.08634 4.76864V2.72518H3.40519C3.2122 2.72518 3.05043 2.6599 2.91987 2.52935C2.78932 2.39879 2.72404 2.23702 2.72404 2.04403C2.72404 1.85103 2.78932 1.68926 2.91987 1.55871C3.05043 1.42815 3.2122 1.36287 3.40519 1.36287H12.9413C13.1343 1.36287 13.2961 1.42815 13.4266 1.55871C13.5572 1.68926 13.6225 1.85103 13.6225 2.04403C13.6225 2.23702 13.5572 2.39879 13.4266 2.52935C13.2961 2.6599 13.1343 2.72518 12.9413 2.72518H12.2602V4.76864C12.2602 5.46114 12.0984 6.11107 11.7749 6.71843C11.4513 7.3258 11 7.81112 10.4211 8.1744C11 8.53768 11.4513 9.023 11.7749 9.63036C12.0984 10.2377 12.2602 10.8877 12.2602 11.5802V13.6236H12.9413C13.1343 13.6236 13.2961 13.6889 13.4266 13.8194C13.5572 13.95 13.6225 14.1118 13.6225 14.3048C13.6225 14.4978 13.5572 14.6595 13.4266 14.7901C13.2961 14.9206 13.1343 14.9859 12.9413 14.9859H3.40519Z" fill="var(--fill-0, #7A4AE2)"/>
</g>
</g>
</svg>
