<svg xmlns="http://www.w3.org/2000/svg" width="37" height="37" viewBox="0 0 37 37" fill="none">
  <mask id="mask0_6881_22251" style="mask-type:alpha" maskUnits="userSpaceOnUse" x="0" y="0" width="37" height="37">
    <rect x="2.05292" y="1.40448" width="33.584" height="33.584" fill="#D9D9D9" stroke="#BC9EFF" stroke-width="2.72303"/>
  </mask>
  <g mask="url(#mask0_6881_22251)">
    <path d="M18.8428 30.7894C18.4898 30.7894 18.1305 30.7264 17.7649 30.6003C17.3993 30.4742 17.0779 30.2725 16.8005 29.9952L14.1909 27.6125C11.5183 25.1669 9.10417 22.7401 6.94844 20.3322C4.79271 17.9244 3.71484 15.2707 3.71484 12.3711C3.71484 10.0011 4.50906 8.02187 6.09749 6.43343C7.68593 4.845 9.66517 4.05078 12.0352 4.05078C13.3715 4.05078 14.6322 4.33443 15.8172 4.90173C17.0022 5.46903 18.0107 6.24433 18.8428 7.22765C19.6748 6.24433 20.6833 5.46903 21.8684 4.90173C23.0534 4.33443 24.3141 4.05078 25.6504 4.05078C28.0204 4.05078 29.9996 4.845 31.5881 6.43343C33.1765 8.02187 33.9707 10.0011 33.9707 12.3711C33.9707 15.2707 32.8992 17.9307 30.756 20.3511C28.6129 22.7716 26.1798 25.2047 23.4568 27.6504L20.8851 29.9952C20.6077 30.2725 20.2862 30.4742 19.9206 30.6003C19.5551 30.7264 19.1958 30.7894 18.8428 30.7894Z" fill="#7A4AE2"/>
  </g>
</svg>