<svg xmlns="http://www.w3.org/2000/svg" width="37" height="37" viewBox="0 0 37 37" fill="none">
  <mask id="mask0_6095_22617" style="mask-type:alpha" maskUnits="userSpaceOnUse" x="0" y="0" width="37" height="37">
    <rect x="0.339844" y="0.230469" width="36.3071" height="36.3071" fill="#D9D9D9"/>
  </mask>
  <g mask="url(#mask0_6095_22617)">
    <path d="M18.4912 30.9769C18.1382 30.9769 17.7789 30.9139 17.4134 30.7878C17.0478 30.6617 16.7263 30.46 16.4489 30.1827L13.8394 27.8C11.1668 25.3544 8.75261 22.9276 6.59688 20.5197C4.44115 18.1119 3.36328 15.4582 3.36328 12.5586C3.36328 10.1886 4.1575 8.20937 5.74593 6.62093C7.33437 5.0325 9.3136 4.23828 11.6836 4.23828C13.0199 4.23828 14.2806 4.52193 15.4656 5.08923C16.6507 5.65653 17.6592 6.43183 18.4912 7.41515C19.3233 6.43183 20.3318 5.65653 21.5168 5.08923C22.7018 4.52193 23.9625 4.23828 25.2988 4.23828C27.6688 4.23828 29.6481 5.0325 31.2365 6.62093C32.8249 8.20937 33.6192 10.1886 33.6192 12.5586C33.6192 15.4582 32.5476 18.1182 30.4045 20.5386C28.2613 22.9591 25.8283 25.3922 23.1052 27.8379L20.5335 30.1827C20.2561 30.46 19.9347 30.6617 19.5691 30.7878C19.2035 30.9139 18.8442 30.9769 18.4912 30.9769Z" fill="#9CA3AF"/>
  </g>
</svg>