<svg xmlns="http://www.w3.org/2000/svg" width="38" height="37" viewBox="0 0 38 37" fill="none">
  <mask id="mask0_6095_22286" style="mask-type:alpha" maskUnits="userSpaceOnUse" x="0" y="0" width="38" height="37">
    <rect x="0.986328" y="0.117188" width="36.3071" height="36.3071" fill="#D9D9D9"/>
  </mask>
  <g mask="url(#mask0_6095_22286)">
    <path d="M19.1397 30.8636C18.7867 30.8636 18.4274 30.8006 18.0618 30.6745C17.6962 30.5485 17.3747 30.3468 17.0974 30.0694L14.4878 27.6868C11.8152 25.2411 9.40105 22.8143 7.24532 20.4064C5.08958 17.9986 4.01172 15.3449 4.01172 12.4454C4.01172 10.0753 4.80594 8.09608 6.39437 6.50765C7.9828 4.91922 9.96204 4.125 12.3321 4.125C13.6684 4.125 14.929 4.40865 16.1141 4.97595C17.2991 5.54324 18.3076 6.31855 19.1397 7.30187C19.9717 6.31855 20.9802 5.54324 22.1652 4.97595C23.3503 4.40865 24.6109 4.125 25.9472 4.125C28.3173 4.125 30.2965 4.91922 31.8849 6.50765C33.4734 8.09608 34.2676 10.0753 34.2676 12.4454C34.2676 15.3449 33.196 18.0049 31.0529 20.4254C28.9098 22.8458 26.4767 25.2789 23.7537 27.7246L21.1819 30.0694C20.9046 30.3468 20.5831 30.5485 20.2175 30.6745C19.8519 30.8006 19.4926 30.8636 19.1397 30.8636ZM17.7025 10.3275C16.9713 9.29371 16.1897 8.5058 15.3577 7.96371C14.5256 7.42163 13.5171 7.15059 12.3321 7.15059C10.8193 7.15059 9.55863 7.65485 8.5501 8.66338C7.54157 9.67191 7.03731 10.9326 7.03731 12.4454C7.03731 13.7565 7.50375 15.1495 8.43664 16.6245C9.36953 18.0994 10.4852 19.5303 11.7837 20.917C13.0822 22.3037 14.4185 23.6022 15.7926 24.8125C17.1667 26.0227 18.2824 27.0186 19.1397 27.8002C19.9969 27.0186 21.1126 26.0227 22.4867 24.8125C23.8608 23.6022 25.1971 22.3037 26.4956 20.917C27.7941 19.5303 28.9098 18.0994 29.8427 16.6245C30.7756 15.1495 31.242 13.7565 31.242 12.4454C31.242 10.9326 30.7377 9.67191 29.7292 8.66338C28.7207 7.65485 27.46 7.15059 25.9472 7.15059C24.7622 7.15059 23.7537 7.42163 22.9216 7.96371C22.0896 8.5058 21.308 9.29371 20.5768 10.3275C20.4003 10.5796 20.186 10.7687 19.9339 10.8948C19.6817 11.0208 19.417 11.0839 19.1397 11.0839C18.8623 11.0839 18.5976 11.0208 18.3454 10.8948C18.0933 10.7687 17.879 10.5796 17.7025 10.3275Z" fill="#BC9EFF"/>
  </g>
</svg>