<svg width="16" height="20" viewBox="0 0 16 20" fill="none" xmlns="http://www.w3.org/2000/svg">
<path d="M11.0751 15.5V16C11.0751 17.9882 9.7319 19 8.0751 19C6.4182 19 5.07505 17.9882 5.07505 16V15.5M8.0751 1C5.57014 1 3.53951 3.06638 3.53951 5.61538C3.53951 6.57589 3.71974 7.35217 3.18734 9.0769C2.99132 9.7119 2.19454 11.0006 1.35379 12.2581C0.441599 13.6225 1.39674 15.5 3.03795 15.5C6.396 15.5 9.7541 15.5 13.1122 15.5C14.7534 15.5 15.7085 13.6225 14.7963 12.2581C13.9556 11.0006 13.1588 9.7119 12.9628 9.0769C12.4304 7.35217 12.6106 6.57589 12.6106 5.61538C12.6106 3.06638 10.58 1 8.0751 1Z" stroke="#7A4AE2" stroke-width="1.7" stroke-linecap="round"/>
</svg>
