<svg width="310" height="41" viewBox="0 0 310 41" fill="none" xmlns="http://www.w3.org/2000/svg">
<path d="M58.303 40.6264C45.2327 40.6264 36.7949 22.4745 36.7949 8.44372C36.7949 -5.67055 53.9495 1.22087 58.3858 5.69973C62.8706 1.17196 79.8111 -5.67055 79.8111 8.44372C79.8111 22.4745 71.4561 40.6264 58.303 40.6264ZM58.3858 32.837C65.5827 32.837 69.1398 25.5099 69.1398 17.1583C69.1398 8.89018 62.5987 9.96512 58.4685 14.1349C54.3544 9.98137 47.4663 8.89018 47.4663 17.1583C47.4663 25.5099 51.0234 32.837 58.3858 32.837Z" fill="#7A4AE2"/>
<path d="M279.773 40.9907C279.343 40.9907 278.992 40.8541 278.718 40.5808C278.445 40.3075 278.309 39.9562 278.309 39.5267V1.46396C278.309 1.03453 278.445 0.683179 278.718 0.409909C278.992 0.136636 279.343 0 279.773 0H307.119C307.549 0 307.9 0.136636 308.173 0.409909C308.447 0.683179 308.583 1.03453 308.583 1.46396V6.96842C308.583 7.39785 308.447 7.7492 308.173 8.02247C307.9 8.29574 307.549 8.43237 307.119 8.43237H288.439V16.3377H305.831C306.26 16.3377 306.612 16.4939 306.885 16.8062C307.158 17.0795 307.295 17.4308 307.295 17.8602V22.9548C307.295 23.3452 307.158 23.6965 306.885 24.0088C306.612 24.2821 306.26 24.4187 305.831 24.4187H288.439V32.5583H307.588C308.017 32.5583 308.368 32.695 308.642 32.9682C308.915 33.2415 309.052 33.5928 309.052 34.0223V39.5267C309.052 39.9562 308.915 40.3075 308.642 40.5808C308.368 40.8541 308.017 40.9907 307.588 40.9907H279.773Z" fill="#7A4AE2"/>
<path d="M231.339 40.9907C230.949 40.9907 230.597 40.8541 230.285 40.5808C230.012 40.3075 229.875 39.9562 229.875 39.5267V1.46396C229.875 1.03453 230.012 0.683179 230.285 0.409909C230.597 0.136636 230.949 0 231.339 0H237.663C238.288 0 238.756 0.175675 239.069 0.527024C239.42 0.839334 239.635 1.09309 239.713 1.28828L250.019 19.7927L260.325 1.28828C260.442 1.09309 260.638 0.839334 260.911 0.527024C261.223 0.175675 261.711 0 262.375 0H268.64C269.07 0 269.421 0.136636 269.695 0.409909C270.007 0.683179 270.163 1.03453 270.163 1.46396V39.5267C270.163 39.9562 270.007 40.3075 269.695 40.5808C269.421 40.8541 269.07 40.9907 268.64 40.9907H261.672C261.243 40.9907 260.872 40.8541 260.559 40.5808C260.286 40.3075 260.15 39.9562 260.15 39.5267V17.5674L253.532 29.8061C253.376 30.1574 253.142 30.4697 252.83 30.743C252.517 31.0163 252.088 31.1529 251.542 31.1529H248.496C247.95 31.1529 247.521 31.0163 247.208 30.743C246.896 30.4697 246.642 30.1574 246.447 29.8061L239.83 17.5674V39.5267C239.83 39.9562 239.693 40.3075 239.42 40.5808C239.147 40.8541 238.795 40.9907 238.366 40.9907H231.339Z" fill="#7A4AE2"/>
<path d="M212.353 40.9907C211.923 40.9907 211.572 40.8541 211.299 40.5808C211.025 40.3075 210.889 39.9562 210.889 39.5267V1.46396C210.889 1.03453 211.025 0.683179 211.299 0.409909C211.572 0.136636 211.923 0 212.353 0H220.199C220.629 0 220.98 0.136636 221.253 0.409909C221.527 0.683179 221.663 1.03453 221.663 1.46396V39.5267C221.663 39.9562 221.527 40.3075 221.253 40.5808C220.98 40.8541 220.629 40.9907 220.199 40.9907H212.353Z" fill="#7A4AE2"/>
<path d="M184.488 40.9907C184.059 40.9907 183.707 40.8541 183.434 40.5808C183.161 40.3075 183.024 39.9562 183.024 39.5267V9.19363H172.601C172.171 9.19363 171.82 9.05699 171.547 8.78372C171.273 8.47141 171.137 8.12006 171.137 7.72968V1.46396C171.137 1.03453 171.273 0.683179 171.547 0.409909C171.82 0.136636 172.171 0 172.601 0H204.105C204.534 0 204.886 0.136636 205.159 0.409909C205.432 0.683179 205.569 1.03453 205.569 1.46396V7.72968C205.569 8.12006 205.432 8.47141 205.159 8.78372C204.886 9.05699 204.534 9.19363 204.105 9.19363H193.682V39.5267C193.682 39.9562 193.545 40.3075 193.272 40.5808C192.998 40.8541 192.647 40.9907 192.218 40.9907H184.488Z" fill="#7A4AE2"/>
<path d="M133.71 40.9907C133.281 40.9907 132.929 40.8541 132.656 40.5808C132.383 40.3075 132.246 39.9562 132.246 39.5267V1.46395C132.246 1.03453 132.383 0.683179 132.656 0.409909C132.929 0.136636 133.281 0 133.71 0H161.057C161.486 0 161.837 0.136636 162.111 0.409909C162.384 0.683179 162.521 1.03453 162.521 1.46395V6.96842C162.521 7.39784 162.384 7.74919 162.111 8.02247C161.837 8.29574 161.486 8.43237 161.057 8.43237H142.377V16.3377H159.768C160.198 16.3377 160.549 16.4939 160.822 16.8062C161.096 17.0795 161.232 17.4308 161.232 17.8602V22.9548C161.232 23.3452 161.096 23.6965 160.822 24.0088C160.549 24.2821 160.198 24.4187 159.768 24.4187H142.377V32.5583H161.525C161.955 32.5583 162.306 32.695 162.579 32.9682C162.852 33.2415 162.989 33.5928 162.989 34.0223V39.5267C162.989 39.9562 162.852 40.3075 162.579 40.5808C162.306 40.8541 161.955 40.9907 161.525 40.9907H133.71Z" fill="#7A4AE2"/>
<path d="M85.2725 40.9907C84.8822 40.9907 84.5308 40.8541 84.2185 40.5808C83.9452 40.3075 83.8086 39.9562 83.8086 39.5267V1.46395C83.8086 1.03453 83.9452 0.683179 84.2185 0.409909C84.5308 0.136636 84.8822 0 85.2725 0H91.5968C92.2214 0 92.6899 0.175675 93.0022 0.527024C93.3536 0.839334 93.5683 1.09309 93.6464 1.28828L103.953 19.7927L114.259 1.28828C114.376 1.09309 114.571 0.839334 114.844 0.527024C115.157 0.175675 115.645 0 116.308 0H122.574C123.004 0 123.355 0.136636 123.628 0.409909C123.94 0.683179 124.097 1.03453 124.097 1.46395V39.5267C124.097 39.9562 123.94 40.3075 123.628 40.5808C123.355 40.8541 123.004 40.9907 122.574 40.9907H115.606C115.176 40.9907 114.805 40.8541 114.493 40.5808C114.22 40.3075 114.083 39.9562 114.083 39.5267V17.5674L107.466 29.8061C107.31 30.1574 107.076 30.4698 106.763 30.743C106.451 31.0163 106.022 31.1529 105.475 31.1529H102.43C101.884 31.1529 101.454 31.0163 101.142 30.743C100.829 30.4698 100.576 30.1574 100.381 29.8061L93.7635 17.5674V39.5267C93.7635 39.9562 93.6268 40.3075 93.3536 40.5808C93.0803 40.8541 92.729 40.9907 92.2995 40.9907H85.2725Z" fill="#7A4AE2"/>
<path d="M17.7035 40.6264C14.0046 40.6264 10.9344 40.0998 8.49313 39.0465C6.05182 37.9556 4.20235 36.545 2.9447 34.8146C1.68706 33.0842 1.02124 31.241 0.947266 29.2849C0.947266 28.9839 1.05823 28.7206 1.28017 28.4949C1.5391 28.2316 1.83502 28.0999 2.16792 28.0999H9.15895C9.6768 28.0999 10.0652 28.194 10.3241 28.3821C10.62 28.5702 10.879 28.8147 11.1009 29.1156C11.3968 29.6799 11.8037 30.2253 12.3216 30.7519C12.8764 31.2786 13.5792 31.7112 14.43 32.0497C15.3177 32.3507 16.4089 32.5011 17.7035 32.5011C19.8489 32.5011 21.458 32.1626 22.5307 31.4855C23.6404 30.8084 24.1952 29.8868 24.1952 28.7206C24.1952 27.893 23.8993 27.2159 23.3075 26.6893C22.7156 26.125 21.7539 25.636 20.4223 25.2222C19.1276 24.7708 17.3891 24.3194 15.2067 23.868C12.3955 23.2661 9.99121 22.495 7.99378 21.5546C6.03333 20.5765 4.53525 19.3164 3.49954 17.7741C2.46384 16.1941 1.94598 14.2381 1.94598 11.9058C1.94598 9.61116 2.57481 7.56103 3.83245 5.75541C5.12709 3.94979 6.92108 2.53915 9.21443 1.52349C11.5078 0.507831 14.2265 0 17.3706 0C19.9229 0 22.1608 0.338554 24.0842 1.01566C26.0447 1.69277 27.6907 2.59558 29.0223 3.72409C30.354 4.8526 31.3527 6.05635 32.0185 7.33533C32.7213 8.57669 33.0912 9.79924 33.1282 11.003C33.1282 11.3039 33.0172 11.5861 32.7953 11.8494C32.5733 12.0751 32.2959 12.1879 31.963 12.1879H24.6391C24.2322 12.1879 23.8808 12.1127 23.5849 11.9622C23.289 11.8118 23.03 11.5672 22.8081 11.2287C22.5862 10.4011 21.9943 9.68639 21.0326 9.08452C20.1079 8.44503 18.8872 8.12528 17.3706 8.12528C15.7431 8.12528 14.4669 8.42622 13.5422 9.02809C12.6545 9.59235 12.2106 10.4763 12.2106 11.6801C12.2106 12.4324 12.451 13.0907 12.9319 13.655C13.4497 14.2192 14.282 14.7083 15.4287 15.1221C16.6123 15.5358 18.2214 15.9684 20.2558 16.4198C23.6219 17.0593 26.3406 17.8681 28.412 18.8461C30.4834 19.7866 32 21.0279 32.9617 22.5702C33.9235 24.0749 34.4043 25.9746 34.4043 28.2692C34.4043 30.8272 33.683 33.0466 32.2404 34.9274C30.8348 36.7707 28.8744 38.1813 26.3591 39.1594C23.8438 40.1374 20.9586 40.6264 17.7035 40.6264Z" fill="#7A4AE2"/>
</svg>
