
<svg xmlns="http://www.w3.org/2000/svg" width="38" height="38" viewBox="0 0 38 38" fill="none">
<path d="M22.5327 25.8611V30.0833C22.5327 31.8323 21.115 33.25 19.3661 33.25H18.7342C17.0007 33.25 15.5895 31.8565 15.5677 30.1232L15.5139 25.8611M22.5327 25.8611H15.5139M22.5327 25.8611C22.5327 24.583 23.3334 23.4686 24.3743 22.7267C26.866 20.9508 28.5 17.9742 28.5 14.6018C28.5 9.16082 24.2467 4.75 19 4.75C13.7533 4.75 9.5 9.16082 9.5 14.6018C9.5 17.9919 11.1512 20.9822 13.665 22.7547C14.6898 23.4774 15.4851 24.5588 15.5128 25.8123L15.5139 25.8611M19 8.70833C22.0606 8.70833 24.5417 11.2813 24.5417 14.4552" stroke="#737275" stroke-width="2" stroke-linecap="round"/>
</svg>