<svg xmlns="http://www.w3.org/2000/svg" width="62" height="62" viewBox="0 0 62 62" fill="none">
  <rect width="62" height="62" rx="30" fill="#7A4AE2"/>
  <path d="M13 27C13 24.7909 14.7909 23 17 23H19.3333C20.9481 23 22.4046 22.029 23.0256 20.5385L23.4744 19.4615C24.0954 17.971 25.5519 17 27.1666 17H34.8334C36.4482 17 37.9046 17.971 38.5256 19.4615L38.9744 20.5385C39.5954 22.029 41.0518 23 42.6666 23H45C47.2092 23 49 24.7909 49 27V41C49 43.2092 47.2092 45 45 45H17C14.7909 45 13 43.2092 13 41V27Z" stroke="white" stroke-width="3" stroke-linecap="round"/>
  <path d="M37 33C37 36.3138 34.3138 39 31 39C27.6862 39 25 36.3138 25 33C25 29.6862 27.6862 27 31 27C34.3138 27 37 29.6862 37 33Z" stroke="white" stroke-width="3" stroke-linecap="round"/>
</svg>
