<svg xmlns="http://www.w3.org/2000/svg" width="21" height="21" viewBox="0 0 21 21" fill="none">
<path d="M5.40551 14.3911C5.52199 14.0725 5.38664 13.7273 5.11083 13.5298C4.98309 13.4383 4.85701 13.3453 4.73473 13.2468C4.03922 12.6921 3.46147 12.0286 3.1075 11.1852C2.53269 9.81809 2.66217 8.49841 3.41572 7.24359C4.19736 5.94208 5.3575 5.12782 6.71637 4.60953C8.96883 3.74976 11.2475 3.70722 13.5252 4.49894C14.8576 4.96194 16.0189 5.70505 16.8797 6.89051C18.1137 8.5919 18.0275 10.7671 16.6717 12.3797C15.573 13.686 14.1521 14.3958 12.5589 14.7865C11.694 14.9989 9.45608 14.6358 8.88033 15.1231C7.66745 16.1816 6.27586 16.8511 4.73008 17.1889C4.58946 17.2193 4.44532 17.2388 4.30292 17.26C4.12245 17.2874 3.97479 17.2358 3.88221 17.0608C3.79022 16.8858 3.82361 16.7266 3.93846 16.5819C4.07205 16.4143 4.208 16.2478 4.35389 16.0934C4.81601 15.6066 5.17332 15.0262 5.40551 14.3911Z" fill="white"/>
</svg>