<svg preserveAspectRatio="none" width="100%" height="100%" overflow="visible" style="display: block;" viewBox="0 0 17.4226 18" fill="none" xmlns="http://www.w3.org/2000/svg">
<g id="check_circle">
<path id="check_circle_2" d="M8.50529 10.408L6.82351 8.72622C6.6801 8.58282 6.49758 8.51111 6.27595 8.51111C6.05432 8.51111 5.87181 8.58282 5.7284 8.72622C5.58499 8.86963 5.51329 9.05215 5.51329 9.27378C5.51329 9.49541 5.58499 9.67793 5.7284 9.82133L7.95773 12.0507C8.11418 12.2071 8.29669 12.2853 8.50529 12.2853C8.71388 12.2853 8.8964 12.2071 9.05284 12.0507L13.4724 7.63111C13.6158 7.4877 13.6875 7.30519 13.6875 7.08356C13.6875 6.86193 13.6158 6.67941 13.4724 6.536C13.329 6.39259 13.1465 6.32089 12.9248 6.32089C12.7032 6.32089 12.5207 6.39259 12.3773 6.536L8.50529 10.408ZM9.6004 16.8222C8.51832 16.8222 7.50144 16.6169 6.54973 16.2062C5.59803 15.7956 4.77018 15.2382 4.06618 14.5342C3.36218 13.8302 2.80484 13.0024 2.39418 12.0507C1.98351 11.099 1.77818 10.0821 1.77818 9C1.77818 7.91793 1.98351 6.90104 2.39418 5.94933C2.80484 4.99763 3.36218 4.16978 4.06618 3.46578C4.77018 2.76178 5.59803 2.20445 6.54973 1.79378C7.50144 1.38311 8.51832 1.17778 9.6004 1.17778C10.6825 1.17778 11.6994 1.38311 12.6511 1.79378C13.6028 2.20445 14.4306 2.76178 15.1346 3.46578C15.8386 4.16978 16.3959 4.99763 16.8066 5.94933C17.2173 6.90104 17.4226 7.91793 17.4226 9C17.4226 10.0821 17.2173 11.099 16.8066 12.0507C16.3959 13.0024 15.8386 13.8302 15.1346 14.5342C14.4306 15.2382 13.6028 15.7956 12.6511 16.2062C11.6994 16.6169 10.6825 16.8222 9.6004 16.8222Z" fill="var(--fill-0, #7A4AE2)"/>
</g>
</svg>
