<svg width="152" height="18" viewBox="0 0 152 18" fill="none" xmlns="http://www.w3.org/2000/svg">
<path d="M141.476 17.6416C141.31 17.6416 141.161 17.5836 141.029 17.4677C140.913 17.3517 140.855 17.2026 140.855 17.0204V11.6783L135.09 1.04365C135.074 0.993953 135.057 0.952541 135.04 0.919411C135.024 0.869716 135.016 0.820022 135.016 0.770328C135.016 0.637809 135.065 0.521855 135.165 0.422466C135.281 0.306512 135.413 0.248535 135.562 0.248535H138.668C138.917 0.248535 139.107 0.314795 139.24 0.447314C139.389 0.563267 139.48 0.670938 139.513 0.770328L143.091 7.18091L146.669 0.770328C146.719 0.670938 146.81 0.563267 146.942 0.447314C147.091 0.314795 147.29 0.248535 147.539 0.248535H150.645C150.794 0.248535 150.918 0.306512 151.017 0.422466C151.117 0.521855 151.166 0.637809 151.166 0.770328C151.166 0.820022 151.158 0.869716 151.141 0.919411C151.141 0.952541 151.133 0.993953 151.117 1.04365L145.327 11.6783V17.0204C145.327 17.2026 145.269 17.3517 145.153 17.4677C145.037 17.5836 144.888 17.6416 144.706 17.6416H141.476Z" fill="#7A4AE2"/>
<path d="M125.179 17.6416C124.997 17.6416 124.848 17.5836 124.732 17.4677C124.616 17.3517 124.558 17.2026 124.558 17.0204V4.14955H120.135C119.953 4.14955 119.804 4.09157 119.688 3.97562C119.572 3.8431 119.514 3.69402 119.514 3.52837V0.869717C119.514 0.687504 119.572 0.53842 119.688 0.422466C119.804 0.306512 119.953 0.248535 120.135 0.248535H133.503C133.685 0.248535 133.834 0.306512 133.95 0.422466C134.066 0.53842 134.124 0.687504 134.124 0.869717V3.52837C134.124 3.69402 134.066 3.8431 133.95 3.97562C133.834 4.09157 133.685 4.14955 133.503 4.14955H129.08V17.0204C129.08 17.2026 129.022 17.3517 128.906 17.4677C128.79 17.5836 128.641 17.6416 128.459 17.6416H125.179Z" fill="#7A4AE2"/>
<path d="M113.297 17.6416C113.115 17.6416 112.966 17.5836 112.85 17.4677C112.734 17.3517 112.676 17.2026 112.676 17.0204V0.869717C112.676 0.687504 112.734 0.53842 112.85 0.422466C112.966 0.306512 113.115 0.248535 113.297 0.248535H116.626C116.809 0.248535 116.958 0.306512 117.074 0.422466C117.19 0.53842 117.248 0.687504 117.248 0.869717V17.0204C117.248 17.2026 117.19 17.3517 117.074 17.4677C116.958 17.5836 116.809 17.6416 116.626 17.6416H113.297Z" fill="#7A4AE2"/>
<path d="M95.4376 17.6416C95.2554 17.6416 95.1063 17.5836 94.9903 17.4677C94.8744 17.3517 94.8164 17.2026 94.8164 17.0204V0.869717C94.8164 0.687504 94.8744 0.53842 94.9903 0.422466C95.1063 0.306512 95.2554 0.248535 95.4376 0.248535H98.0714C98.353 0.248535 98.5518 0.314795 98.6677 0.447314C98.8002 0.563267 98.8831 0.654373 98.9162 0.720632L104.979 10.2868V0.869717C104.979 0.687504 105.037 0.53842 105.153 0.422466C105.269 0.306512 105.418 0.248535 105.6 0.248535H108.582C108.764 0.248535 108.913 0.306512 109.029 0.422466C109.145 0.53842 109.203 0.687504 109.203 0.869717V17.0204C109.203 17.1861 109.145 17.3351 109.029 17.4677C108.913 17.5836 108.764 17.6416 108.582 17.6416H105.923C105.658 17.6416 105.459 17.5753 105.327 17.4428C105.211 17.3103 105.136 17.2192 105.103 17.1695L99.0404 7.97602V17.0204C99.0404 17.2026 98.9825 17.3517 98.8665 17.4677C98.7506 17.5836 98.6015 17.6416 98.4193 17.6416H95.4376Z" fill="#7A4AE2"/>
<path d="M84.0914 17.8901C82.6006 17.8901 81.292 17.6499 80.1656 17.1695C79.0557 16.6726 78.1944 15.9189 77.5815 14.9084C76.9686 13.8814 76.6621 12.581 76.6621 11.0074V0.869717C76.6621 0.687504 76.7201 0.53842 76.836 0.422466C76.952 0.306512 77.1011 0.248535 77.2833 0.248535H80.4886C80.6708 0.248535 80.8199 0.306512 80.9358 0.422466C81.0518 0.53842 81.1098 0.687504 81.1098 0.869717V10.9825C81.1098 12.0593 81.3665 12.8709 81.88 13.4176C82.4101 13.9476 83.1472 14.2127 84.0914 14.2127C85.0191 14.2127 85.7396 13.9476 86.2531 13.4176C86.7832 12.8709 87.0482 12.0593 87.0482 10.9825V0.869717C87.0482 0.687504 87.1062 0.53842 87.2222 0.422466C87.3547 0.306512 87.5038 0.248535 87.6694 0.248535H90.8996C91.0652 0.248535 91.206 0.306512 91.322 0.422466C91.4545 0.53842 91.5208 0.687504 91.5208 0.869717V11.0074C91.5208 12.581 91.2143 13.8814 90.6014 14.9084C89.9885 15.9189 89.1271 16.6726 88.0173 17.1695C86.9075 17.6499 85.5988 17.8901 84.0914 17.8901Z" fill="#7A4AE2"/>
<path d="M56.8809 17.6416C56.7153 17.6416 56.5662 17.5836 56.4337 17.4677C56.3177 17.3517 56.2598 17.2026 56.2598 17.0204V0.869717C56.2598 0.687504 56.3177 0.53842 56.4337 0.422466C56.5662 0.306512 56.7153 0.248535 56.8809 0.248535H59.5644C59.8295 0.248535 60.0283 0.323077 60.1608 0.472161C60.3099 0.604679 60.401 0.712351 60.4341 0.795175L64.8072 8.6469L69.1803 0.795175C69.23 0.712351 69.3128 0.604679 69.4288 0.472161C69.5613 0.323077 69.7684 0.248535 70.05 0.248535H72.7086C72.8908 0.248535 73.0399 0.306512 73.1559 0.422466C73.2884 0.53842 73.3547 0.687504 73.3547 0.869717V17.0204C73.3547 17.2026 73.2884 17.3517 73.1559 17.4677C73.0399 17.5836 72.8908 17.6416 72.7086 17.6416H69.7518C69.5696 17.6416 69.4122 17.5836 69.2797 17.4677C69.1638 17.3517 69.1058 17.2026 69.1058 17.0204V7.70271L66.298 12.8958C66.2318 13.0449 66.1324 13.1774 65.9999 13.2933C65.8674 13.4093 65.6851 13.4673 65.4532 13.4673H64.1612C63.9293 13.4673 63.7471 13.4093 63.6145 13.2933C63.482 13.1774 63.3744 13.0449 63.2915 12.8958L60.4838 7.70271V17.0204C60.4838 17.2026 60.4258 17.3517 60.3099 17.4677C60.1939 17.5836 60.0448 17.6416 59.8626 17.6416H56.8809Z" fill="#7A4AE2"/>
<path d="M36.3282 17.6416C36.1626 17.6416 36.0135 17.5836 35.881 17.4677C35.765 17.3517 35.707 17.2026 35.707 17.0204V0.869717C35.707 0.687504 35.765 0.53842 35.881 0.422466C36.0135 0.306512 36.1626 0.248535 36.3282 0.248535H39.0117C39.2767 0.248535 39.4755 0.323077 39.608 0.472161C39.7571 0.604679 39.8482 0.712351 39.8814 0.795175L44.2545 8.6469L48.6276 0.795175C48.6773 0.712351 48.7601 0.604679 48.8761 0.472161C49.0086 0.323077 49.2156 0.248535 49.4972 0.248535H52.1559C52.3381 0.248535 52.4872 0.306512 52.6031 0.422466C52.7357 0.53842 52.8019 0.687504 52.8019 0.869717V17.0204C52.8019 17.2026 52.7357 17.3517 52.6031 17.4677C52.4872 17.5836 52.3381 17.6416 52.1559 17.6416H49.1991C49.0169 17.6416 48.8595 17.5836 48.727 17.4677C48.611 17.3517 48.553 17.2026 48.553 17.0204V7.70271L45.7453 12.8958C45.6791 13.0449 45.5797 13.1774 45.4471 13.2933C45.3146 13.4093 45.1324 13.4673 44.9005 13.4673H43.6085C43.3765 13.4673 43.1943 13.4093 43.0618 13.2933C42.9293 13.1774 42.8216 13.0449 42.7388 12.8958L39.9311 7.70271V17.0204C39.9311 17.2026 39.8731 17.3517 39.7571 17.4677C39.6412 17.5836 39.4921 17.6416 39.3099 17.6416H36.3282Z" fill="#7A4AE2"/>
<path d="M25.1231 17.89C23.5991 17.89 22.274 17.6415 21.1475 17.1446C20.0211 16.6476 19.1432 15.9022 18.5137 14.9083C17.8843 13.8979 17.5364 12.639 17.4702 11.1316C17.4536 10.4193 17.4453 9.70699 17.4453 8.9947C17.4453 8.28241 17.4536 7.56184 17.4702 6.83299C17.5364 5.34215 17.8843 4.09151 18.5137 3.08106C19.1598 2.05404 20.046 1.28377 21.1724 0.770265C22.2988 0.256755 23.6157 0 25.1231 0C26.6139 0 27.9226 0.256755 29.049 0.770265C30.1919 1.28377 31.0864 2.05404 31.7325 3.08106C32.3785 4.09151 32.7264 5.34215 32.7761 6.83299C32.8092 7.56184 32.8257 8.28241 32.8257 8.9947C32.8257 9.70699 32.8092 10.4193 32.7761 11.1316C32.7098 12.639 32.3619 13.8979 31.7325 14.9083C31.103 15.9022 30.2251 16.6476 29.0987 17.1446C27.9723 17.6415 26.6471 17.89 25.1231 17.89ZM25.1231 14.312C26.001 14.312 26.7133 14.047 27.26 13.5169C27.8232 12.9868 28.1213 12.142 28.1545 10.9825C28.1876 10.2536 28.2042 9.56618 28.2042 8.92016C28.2042 8.27413 28.1876 7.60325 28.1545 6.90753C28.1213 6.12898 27.9723 5.49952 27.7072 5.01914C27.4587 4.5222 27.1109 4.15777 26.6636 3.92586C26.2164 3.69396 25.7029 3.578 25.1231 3.578C24.5599 3.578 24.0547 3.69396 23.6074 3.92586C23.1602 4.15777 22.804 4.5222 22.539 5.01914C22.274 5.49952 22.1249 6.12898 22.0917 6.90753C22.0752 7.60325 22.0669 8.27413 22.0669 8.92016C22.0669 9.56618 22.0752 10.2536 22.0917 10.9825C22.1414 12.142 22.4396 12.9868 22.9862 13.5169C23.5329 14.047 24.2452 14.312 25.1231 14.312Z" fill="#7A4AE2"/>
<path d="M7.70264 17.89C6.12898 17.89 4.77895 17.6333 3.65254 17.1197C2.5427 16.6062 1.67305 15.8525 1.04358 14.8586C0.430685 13.8648 0.0911065 12.6307 0.0248472 11.1564C0.00828245 10.4773 0 9.7484 0 8.96985C0 8.19131 0.00828245 7.44589 0.0248472 6.7336C0.0911065 5.29246 0.438968 4.07495 1.06843 3.08106C1.69789 2.0706 2.57583 1.30862 3.70224 0.795112C4.82865 0.265038 6.16211 0 7.70264 0C8.79592 0 9.80637 0.140801 10.734 0.422403C11.6616 0.68744 12.4733 1.085 13.169 1.61507C13.8648 2.12858 14.4031 2.75804 14.7841 3.50346C15.1817 4.23231 15.3887 5.06055 15.4053 5.98818C15.4218 6.13727 15.3722 6.2615 15.2562 6.36089C15.1568 6.46028 15.0326 6.50997 14.8835 6.50997H11.5291C11.3138 6.50997 11.1481 6.46856 11.0322 6.38574C10.9162 6.28635 10.8168 6.11242 10.734 5.86395C10.5021 4.98601 10.1211 4.38968 9.59103 4.07495C9.07752 3.74365 8.43978 3.578 7.67779 3.578C6.76673 3.578 6.04616 3.83476 5.51609 4.34827C4.98601 4.84521 4.69613 5.68173 4.64643 6.85784C4.59674 8.21615 4.59674 9.6076 4.64643 11.0322C4.69613 12.2083 4.98601 13.0531 5.51609 13.5666C6.04616 14.0635 6.76673 14.312 7.67779 14.312C8.43978 14.312 9.0858 14.1464 9.61588 13.8151C10.146 13.4838 10.5187 12.8874 10.734 12.0261C10.8003 11.7776 10.8914 11.6119 11.0073 11.5291C11.1398 11.4297 11.3138 11.38 11.5291 11.38H14.8835C15.0326 11.38 15.1568 11.4297 15.2562 11.5291C15.3722 11.6285 15.4218 11.7527 15.4053 11.9018C15.3887 12.8295 15.1817 13.666 14.7841 14.4114C14.4031 15.1402 13.8648 15.7697 13.169 16.2998C12.4733 16.8133 11.6616 17.2109 10.734 17.4925C9.80637 17.7575 8.79592 17.89 7.70264 17.89Z" fill="#7A4AE2"/>
</svg>
