<svg width="24" height="24" viewBox="0 0 24 24" fill="none" xmlns="http://www.w3.org/2000/svg">
<path d="M3.42497 2.57513C3.36919 2.51934 3.30296 2.47509 3.23007 2.4449C3.15718 2.41471 3.07906 2.39917 3.00017 2.39917C2.92128 2.39917 2.84316 2.41471 2.77027 2.4449C2.69738 2.47509 2.63116 2.51934 2.57537 2.57513C2.51959 2.63091 2.47533 2.69714 2.44514 2.77003C2.41495 2.84292 2.39941 2.92104 2.39941 2.99993C2.39941 3.07882 2.41495 3.15694 2.44514 3.22983C2.47533 3.30272 2.51959 3.36894 2.57537 3.42473L6.77537 7.62233C4.69553 9.0414 3.24749 11.2122 2.73617 13.6775C2.7201 13.7547 2.71938 13.8342 2.73404 13.9116C2.74871 13.9891 2.77849 14.0628 2.82167 14.1287C2.86485 14.1946 2.92059 14.2514 2.9857 14.2958C3.05082 14.3401 3.12403 14.3713 3.20117 14.3873C3.27831 14.4034 3.35786 14.4041 3.43528 14.3895C3.5127 14.3748 3.58647 14.345 3.65238 14.3018C3.71829 14.2587 3.77505 14.2029 3.81942 14.1378C3.86379 14.0727 3.8949 13.9995 3.91097 13.9223C4.14067 12.8144 4.58877 11.7632 5.22912 10.8303C5.86947 9.89739 6.68924 9.10138 7.64057 8.48873L9.54017 10.3871C9.04508 10.7422 8.63319 11.2008 8.33306 11.731C8.03292 12.2613 7.85175 12.8504 7.80209 13.4577C7.75244 14.0649 7.8355 14.6757 8.04551 15.2477C8.25552 15.8196 8.58745 16.339 9.01828 16.7698C9.4491 17.2006 9.9685 17.5326 10.5404 17.7426C11.1124 17.9526 11.7232 18.0357 12.3304 17.986C12.9377 17.9364 13.5268 17.7552 14.0571 17.455C14.5873 17.1549 15.0459 16.743 15.401 16.2479L20.5766 21.4247C20.6892 21.5374 20.842 21.6007 21.0014 21.6007C21.1607 21.6007 21.3135 21.5374 21.4262 21.4247C21.5388 21.3121 21.6021 21.1593 21.6021 20.9999C21.6021 20.8406 21.5388 20.6878 21.4262 20.5751L3.42497 2.57513ZM12.149 9.60353L16.1846 13.6391C16.1439 12.5818 15.7057 11.5788 14.9575 10.8306C14.2093 10.0824 13.2063 9.64416 12.149 9.60353ZM9.03617 6.49193L9.99977 7.45553C10.653 7.28544 11.3252 7.19954 12.0002 7.19993C15.8474 7.19993 19.2686 9.99233 20.0882 13.9223C20.1206 14.0783 20.2137 14.2149 20.3469 14.3023C20.4802 14.3896 20.6426 14.4204 20.7986 14.3879C20.9545 14.3555 21.0912 14.2624 21.1785 14.1292C21.2658 13.9959 21.2966 13.8335 21.2642 13.6775C20.3318 9.20753 16.4318 5.99993 12.0002 5.99993C10.9742 5.99993 9.97457 6.17153 9.03617 6.49193Z" fill="#9B94AB"/>
</svg>
