<svg width="18" height="15" viewBox="0 0 18 15" fill="none" xmlns="http://www.w3.org/2000/svg">
<path d="M8.99935 14.9362C8.8049 14.9362 8.60699 14.9015 8.4056 14.832C8.20421 14.7626 8.02713 14.6515 7.87435 14.4987L6.43685 13.1862C4.96463 11.839 3.63477 10.5022 2.44727 9.17578C1.25977 7.84939 0.666016 6.38759 0.666016 4.79037C0.666016 3.48481 1.10352 2.39453 1.97852 1.51953C2.85352 0.644531 3.94379 0.207031 5.24935 0.207031C5.98546 0.207031 6.6799 0.363281 7.33268 0.675781C7.98546 0.988281 8.54102 1.41536 8.99935 1.95703C9.45768 1.41536 10.0132 0.988281 10.666 0.675781C11.3188 0.363281 12.0132 0.207031 12.7493 0.207031C14.0549 0.207031 15.1452 0.644531 16.0202 1.51953C16.8952 2.39453 17.3327 3.48481 17.3327 4.79037C17.3327 6.38759 16.7424 7.85287 15.5618 9.1862C14.3813 10.5195 13.041 11.8598 11.541 13.207L10.1243 14.4987C9.97157 14.6515 9.79449 14.7626 9.5931 14.832C9.39171 14.9015 9.19379 14.9362 8.99935 14.9362Z" fill="#7A4AE2"/>
</svg>
