<svg width="24" height="22" viewBox="0 0 24 22" fill="none" xmlns="http://www.w3.org/2000/svg">
<path d="M11.0826 2.89609C9.86689 1.67464 8.21589 0.985968 6.49257 0.981468C4.76924 0.976967 3.11467 1.65701 1.8926 2.87209C0.677518 4.09416 -0.0025252 5.74873 0.00197532 7.47206C0.00647584 9.19538 0.695152 10.8464 1.9166 12.0621L11.3306 21.4781C11.5181 21.6656 11.7724 21.7709 12.0376 21.7709C12.3028 21.7709 12.5571 21.6656 12.7446 21.4781L22.1106 12.1181C23.3251 10.8961 24.0047 9.24196 24.0002 7.51912C23.9957 5.79629 23.3074 4.14571 22.0866 2.93009C21.4844 2.32349 20.7685 1.84161 19.9799 1.51205C19.1912 1.18248 18.3453 1.01169 17.4906 1.00946C16.6358 1.00723 15.7891 1.17361 14.9987 1.49905C14.2083 1.8245 13.4899 2.30264 12.8846 2.90609L11.9906 3.80209L11.0826 2.89609Z" fill="url(#paint0_linear_1801_4180)"/>
<defs>
<linearGradient id="paint0_linear_1801_4180" x1="-5.2494" y1="-4.95991" x2="7.4046" y2="21.8481" gradientUnits="userSpaceOnUse">
<stop stop-color="#F97DBD"/>
<stop offset="1" stop-color="#D7257D"/>
</linearGradient>
</defs>
</svg>
