<svg width="19" height="19" viewBox="0 0 19 19" fill="none" xmlns="http://www.w3.org/2000/svg">
<path d="M2.0279 0.203125C1.31674 0.203125 0.742188 0.777679 0.742188 1.48884V5.34598C0.742188 6.05714 1.31674 6.6317 2.0279 6.6317C2.73906 6.6317 3.31362 6.05714 3.31362 5.34598V2.77455H5.88504C6.59621 2.77455 7.17076 2.2 7.17076 1.48884C7.17076 0.777679 6.59621 0.203125 5.88504 0.203125H2.0279ZM3.31362 13.0603C3.31362 12.3491 2.73906 11.7746 2.0279 11.7746C1.31674 11.7746 0.742188 12.3491 0.742188 13.0603V16.9174C0.742188 17.6286 1.31674 18.2031 2.0279 18.2031H5.88504C6.59621 18.2031 7.17076 17.6286 7.17076 16.9174C7.17076 16.2062 6.59621 15.6317 5.88504 15.6317H3.31362V13.0603ZM13.5993 0.203125C12.8882 0.203125 12.3136 0.777679 12.3136 1.48884C12.3136 2.2 12.8882 2.77455 13.5993 2.77455H16.1708V5.34598C16.1708 6.05714 16.7453 6.6317 17.4565 6.6317C18.1676 6.6317 18.7422 6.05714 18.7422 5.34598V1.48884C18.7422 0.777679 18.1676 0.203125 17.4565 0.203125H13.5993ZM18.7422 13.0603C18.7422 12.3491 18.1676 11.7746 17.4565 11.7746C16.7453 11.7746 16.1708 12.3491 16.1708 13.0603V15.6317H13.5993C12.8882 15.6317 12.3136 16.2062 12.3136 16.9174C12.3136 17.6286 12.8882 18.2031 13.5993 18.2031H17.4565C18.1676 18.2031 18.7422 17.6286 18.7422 16.9174V13.0603Z" fill="#8638E5"/>
</svg>
