<svg width="21" height="21" viewBox="0 0 21 21" fill="none" xmlns="http://www.w3.org/2000/svg">
<mask id="mask0_6095_26202" style="mask-type:alpha" maskUnits="userSpaceOnUse" x="0" y="0" width="21" height="21">
<rect x="0.5" y="0.824219" width="20" height="20" fill="#D9D9D9"/>
</mask>
<g mask="url(#mask0_6095_26202)">
<path d="M10.4577 15.8255C10.7493 15.8255 10.9959 15.7248 11.1973 15.5234C11.3987 15.322 11.4993 15.0755 11.4993 14.7839C11.4993 14.4922 11.3987 14.2457 11.1973 14.0443C10.9959 13.8429 10.7493 13.7422 10.4577 13.7422C10.166 13.7422 9.91949 13.8429 9.7181 14.0443C9.51671 14.2457 9.41602 14.4922 9.41602 14.7839C9.41602 15.0755 9.51671 15.322 9.7181 15.5234C9.91949 15.7248 10.166 15.8255 10.4577 15.8255ZM10.4993 19.1589C9.34657 19.1589 8.26324 18.9401 7.24935 18.5026C6.23546 18.0651 5.35352 17.4714 4.60352 16.7214C3.85352 15.9714 3.25977 15.0894 2.82227 14.0755C2.38477 13.0616 2.16602 11.9783 2.16602 10.8255C2.16602 9.67274 2.38477 8.58941 2.82227 7.57552C3.25977 6.56163 3.85352 5.67969 4.60352 4.92969C5.35352 4.17969 6.23546 3.58594 7.24935 3.14844C8.26324 2.71094 9.34657 2.49219 10.4993 2.49219C11.6521 2.49219 12.7355 2.71094 13.7493 3.14844C14.7632 3.58594 15.6452 4.17969 16.3952 4.92969C17.1452 5.67969 17.7389 6.56163 18.1764 7.57552C18.6139 8.58941 18.8327 9.67274 18.8327 10.8255C18.8327 11.9783 18.6139 13.0616 18.1764 14.0755C17.7389 15.0894 17.1452 15.9714 16.3952 16.7214C15.6452 17.4714 14.7632 18.0651 13.7493 18.5026C12.7355 18.9401 11.6521 19.1589 10.4993 19.1589ZM10.5827 7.24219C10.9299 7.24219 11.232 7.3533 11.4889 7.57552C11.7459 7.79774 11.8743 8.07552 11.8743 8.40885C11.8743 8.71441 11.7806 8.98524 11.5931 9.22135C11.4056 9.45747 11.1938 9.67969 10.9577 9.88802C10.6382 10.1658 10.357 10.4714 10.1139 10.8047C9.87088 11.138 9.74935 11.513 9.74935 11.9297C9.74935 12.1241 9.82227 12.2873 9.9681 12.4193C10.1139 12.5512 10.2841 12.6172 10.4785 12.6172C10.6868 12.6172 10.8639 12.5477 11.0098 12.4089C11.1556 12.27 11.2493 12.0964 11.291 11.888C11.3466 11.5964 11.4716 11.3359 11.666 11.1068C11.8605 10.8776 12.0688 10.6589 12.291 10.4505C12.6105 10.145 12.8848 9.81163 13.1139 9.45052C13.3431 9.08941 13.4577 8.68663 13.4577 8.24219C13.4577 7.53385 13.1695 6.95399 12.5931 6.5026C12.0167 6.05122 11.3466 5.82552 10.5827 5.82552C10.0549 5.82552 9.55143 5.93663 9.07227 6.15885C8.5931 6.38108 8.22852 6.72135 7.97852 7.17969C7.88129 7.34635 7.85004 7.52344 7.88477 7.71094C7.91949 7.89844 8.01324 8.0408 8.16602 8.13802C8.36046 8.24913 8.56185 8.28385 8.77018 8.24219C8.97852 8.20052 9.15213 8.08247 9.29102 7.88802C9.44379 7.67969 9.63477 7.51997 9.86393 7.40885C10.0931 7.29774 10.3327 7.24219 10.5827 7.24219Z" fill="#7A4AE2"/>
</g>
</svg>
