<svg xmlns="http://www.w3.org/2000/svg" width="31" height="24" viewBox="0 0 31 24" fill="none">
  <path d="M11.6009 11.5988C12.8594 11.5988 14.0664 11.1197 14.9563 10.2669C15.8462 9.41408 16.3461 8.25742 16.3461 7.05136C16.3461 5.8453 15.8462 4.68864 14.9563 3.83582C14.0664 2.98301 12.8594 2.50391 11.6009 2.50391C10.3424 2.50391 9.13547 2.98301 8.24558 3.83582C7.35569 4.68864 6.85575 5.8453 6.85575 7.05136C6.85575 8.25742 7.35569 9.41408 8.24558 10.2669C9.13547 11.1197 10.3424 11.5988 11.6009 11.5988ZM9.90675 13.3041C6.25519 13.3041 3.29688 16.1392 3.29688 19.6386C3.29688 20.2212 3.78993 20.6937 4.3979 20.6937H15.2636C15.1487 20.3811 15.1264 20.04 15.2117 19.7061L15.7678 17.5709C15.8716 17.1694 16.0866 16.8071 16.3906 16.5157L17.8846 15.084C16.6946 13.9827 15.0782 13.3041 13.2914 13.3041H9.90675ZM26.0514 10.8776C25.4731 10.3234 24.5352 10.3234 23.9532 10.8776L22.8633 11.9221L25.4954 14.4445L26.5853 13.4C27.1636 12.8458 27.1636 11.947 26.5853 11.3892L26.0514 10.8776ZM17.2321 17.3187C17.0801 17.4643 16.9726 17.6455 16.9207 17.848L16.3646 19.9832C16.3127 20.1786 16.372 20.3811 16.5203 20.5232C16.6686 20.6653 16.8799 20.7221 17.0838 20.6724L19.3118 20.1395C19.5194 20.0898 19.7122 19.9867 19.8642 19.8411L24.6538 15.2474L22.0218 12.725L17.2321 17.3187Z" fill="#8638E5"></path>
</svg>
