<svg xmlns="http://www.w3.org/2000/svg" width="22" height="29" viewBox="0 0 22 29" fill="none">
<path d="M3.16018 28.3359C2.42685 28.3359 1.79907 28.0748 1.27685 27.5526C0.754626 27.0304 0.493515 26.4026 0.493515 25.6693V12.3359C0.493515 11.6026 0.754626 10.9748 1.27685 10.4526C1.79907 9.93038 2.42685 9.66927 3.16018 9.66927H4.49351V7.0026C4.49351 5.15816 5.14351 3.58594 6.44351 2.28594C7.74351 0.985937 9.31574 0.335938 11.1602 0.335938C13.0046 0.335938 14.5768 0.985937 15.8768 2.28594C17.1768 3.58594 17.8268 5.15816 17.8268 7.0026V9.66927H19.1602C19.8935 9.66927 20.5213 9.93038 21.0435 10.4526C21.5657 10.9748 21.8268 11.6026 21.8268 12.3359V25.6693C21.8268 26.4026 21.5657 27.0304 21.0435 27.5526C20.5213 28.0748 19.8935 28.3359 19.1602 28.3359H3.16018ZM11.1602 21.6693C11.8935 21.6693 12.5213 21.4082 13.0435 20.8859C13.5657 20.3637 13.8268 19.7359 13.8268 19.0026C13.8268 18.2693 13.5657 17.6415 13.0435 17.1193C12.5213 16.597 11.8935 16.3359 11.1602 16.3359C10.4268 16.3359 9.79907 16.597 9.27685 17.1193C8.75463 17.6415 8.49351 18.2693 8.49351 19.0026C8.49351 19.7359 8.75463 20.3637 9.27685 20.8859C9.79907 21.4082 10.4268 21.6693 11.1602 21.6693ZM7.16018 9.66927H15.1602V7.0026C15.1602 5.89149 14.7713 4.94705 13.9935 4.16927C13.2157 3.39149 12.2713 3.0026 11.1602 3.0026C10.0491 3.0026 9.10463 3.39149 8.32685 4.16927C7.54907 4.94705 7.16018 5.89149 7.16018 7.0026V9.66927Z" fill="#7A4AE2"/>
</svg>