<svg width="41" height="57" viewBox="0 0 41 57" fill="none" xmlns="http://www.w3.org/2000/svg">
<path d="M10.7156 22.6964V11.8571C10.7156 6.57496 14.9976 2.29297 20.2797 2.29297C25.5619 2.29297 29.8438 6.57496 29.8438 11.8571V22.6964M6.88992 55.4086H33.6694C36.4866 55.4086 38.7703 53.125 38.7703 50.3078V27.7973C38.7703 24.9801 36.4866 22.6964 33.6694 22.6964H6.88992C4.07279 22.6964 1.78906 24.9801 1.78906 27.7973L1.78906 50.3078C1.78906 53.125 4.07279 55.4086 6.88992 55.4086ZM26.0181 38.9398C26.0181 41.757 23.7345 44.0407 20.9173 44.0407C18.1001 44.0407 15.8164 41.757 15.8164 38.9398C15.8164 36.1226 18.1001 33.839 20.9173 33.839C23.7345 33.839 26.0181 36.1226 26.0181 38.9398Z" stroke="white" stroke-width="3" stroke-linecap="round"/>
</svg>
