<svg xmlns="http://www.w3.org/2000/svg" width="17" height="27" viewBox="0 0 17 27" fill="none">
  <path d="M2.5 13.5V7.25C2.5 3.79822 5.18629 1 8.5 1C11.8137 1 14.5 3.79822 14.5 7.25V13.5M16 18.1875C16 22.5022 12.6421 26 8.5 26C4.35787 26 1 22.5022 1 18.1875C1 13.8728 4.35787 10.375 8.5 10.375C12.6421 10.375 16 13.8728 16 18.1875ZM11.5 18.1875C11.5 19.9134 10.1569 21.3125 8.5 21.3125C6.8431 21.3125 5.5 19.9134 5.5 18.1875C5.5 16.4616 6.8431 15.0625 8.5 15.0625C10.1569 15.0625 11.5 16.4616 11.5 18.1875Z" stroke="white" stroke-width="1.5" stroke-linecap="round"/>
</svg>