<svg width="13" height="12" viewBox="0 0 13 12" fill="none" xmlns="http://www.w3.org/2000/svg">
<path d="M7 2.75C7 3.02614 6.77615 3.25 6.5 3.25C6.22385 3.25 6 3.02614 6 2.75C6 2.47386 6.22385 2.25 6.5 2.25C6.77615 2.25 7 2.47386 7 2.75Z" stroke="#A892D7" stroke-width="1.25" stroke-linecap="round"/>
<path d="M7 6C7 6.27615 6.77615 6.5 6.5 6.5C6.22385 6.5 6 6.27615 6 6C6 5.72385 6.22385 5.5 6.5 5.5C6.77615 5.5 7 5.72385 7 6Z" stroke="#A892D7" stroke-width="1.25" stroke-linecap="round"/>
<path d="M7 9.25C7 9.52615 6.77615 9.75 6.5 9.75C6.22385 9.75 6 9.52615 6 9.25C6 8.97385 6.22385 8.75 6.5 8.75C6.77615 8.75 7 8.97385 7 9.25Z" stroke="#A892D7" stroke-width="1.25" stroke-linecap="round"/>
</svg>
