<svg width="24" height="24" viewBox="0 0 24 24" fill="none" xmlns="http://www.w3.org/2000/svg">
<path d="M13 5.5C13 6.05228 12.5523 6.5 12 6.5C11.4477 6.5 11 6.05228 11 5.5C11 4.94772 11.4477 4.5 12 4.5C12.5523 4.5 13 4.94772 13 5.5Z" stroke="black" stroke-width="1.25" stroke-linecap="round"/>
<path d="M13 12C13 12.5523 12.5523 13 12 13C11.4477 13 11 12.5523 11 12C11 11.4477 11.4477 11 12 11C12.5523 11 13 11.4477 13 12Z" stroke="black" stroke-width="1.25" stroke-linecap="round"/>
<path d="M13 18.5C13 19.0523 12.5523 19.5 12 19.5C11.4477 19.5 11 19.0523 11 18.5C11 17.9477 11.4477 17.5 12 17.5C12.5523 17.5 13 17.9477 13 18.5Z" stroke="black" stroke-width="1.25" stroke-linecap="round"/>
</svg>
