<svg width="39" height="38" viewBox="0 0 39 38" fill="none" xmlns="http://www.w3.org/2000/svg">
<g clip-path="url(#clip0_5113_20690)">
<path d="M12.0672 16.4902C12.4281 15.4684 13.0141 14.5074 13.8391 13.6871C16.7688 10.7574 21.5172 10.7574 24.4469 13.6871L25.2484 14.4934H22.8906C22.0609 14.4934 21.3906 15.1637 21.3906 15.9934C21.3906 16.823 22.0609 17.4934 22.8906 17.4934H28.8672H28.8859C29.7156 17.4934 30.3859 16.823 30.3859 15.9934V9.99336C30.3859 9.16367 29.7156 8.49336 28.8859 8.49336C28.0563 8.49336 27.3859 9.16367 27.3859 9.99336V12.3934L26.5656 11.5684C22.4641 7.4668 15.8172 7.4668 11.7156 11.5684C10.5719 12.7121 9.74688 14.0574 9.24063 15.4965C8.96406 16.2793 9.37656 17.1324 10.1547 17.409C10.9328 17.6855 11.7906 17.273 12.0672 16.4949V16.4902ZM8.96875 20.5543C8.73438 20.6246 8.50938 20.7512 8.32656 20.9387C8.13906 21.1262 8.0125 21.3512 7.94688 21.5949C7.93281 21.6512 7.91875 21.7121 7.90937 21.773C7.89531 21.8527 7.89062 21.9324 7.89062 22.0121V27.9934C7.89062 28.823 8.56094 29.4934 9.39063 29.4934C10.2203 29.4934 10.8906 28.823 10.8906 27.9934V25.598L11.7156 26.4184C15.8172 30.5152 22.4641 30.5152 26.5609 26.4184C27.7047 25.2746 28.5344 23.9293 29.0406 22.4949C29.3172 21.7121 28.9047 20.859 28.1266 20.5824C27.3484 20.3059 26.4906 20.7184 26.2141 21.4965C25.8531 22.5184 25.2672 23.4793 24.4422 24.2996C21.5125 27.2293 16.7641 27.2293 13.8344 24.2996L13.8297 24.2949L13.0281 23.4934H15.3906C16.2203 23.4934 16.8906 22.823 16.8906 21.9934C16.8906 21.1637 16.2203 20.4934 15.3906 20.4934H9.40938C9.33438 20.4934 9.25938 20.498 9.18438 20.5074C9.10938 20.5168 9.03906 20.5309 8.96875 20.5543Z" fill="#8638E5"/>
</g>
<defs>
<clipPath id="clip0_5113_20690">
<path d="M7.14062 6.99414H31.1406V30.9941H7.14062V6.99414Z" fill="white"/>
</clipPath>
</defs>
</svg>
