<svg width="15" height="15" viewBox="0 0 15 15" fill="none" xmlns="http://www.w3.org/2000/svg">
<g clip-path="url(#clip0_6997_13980)">
<path d="M11.9121 6.4375C11.9121 7.69258 11.5047 8.85195 10.8184 9.79258L14.2801 13.257C14.6219 13.5988 14.6219 14.1539 14.2801 14.4957C13.9383 14.8375 13.3832 14.8375 13.0414 14.4957L9.57969 11.0312C8.63906 11.7203 7.47969 12.125 6.22461 12.125C3.08281 12.125 0.537109 9.5793 0.537109 6.4375C0.537109 3.2957 3.08281 0.75 6.22461 0.75C9.36641 0.75 11.9121 3.2957 11.9121 6.4375ZM6.22461 10.375C6.74169 10.375 7.25371 10.2732 7.73143 10.0753C8.20915 9.8774 8.64321 9.58736 9.00884 9.22173C9.37447 8.8561 9.66451 8.42204 9.86239 7.94432C10.0603 7.4666 10.1621 6.95458 10.1621 6.4375C10.1621 5.92042 10.0603 5.4084 9.86239 4.93068C9.66451 4.45296 9.37447 4.0189 9.00884 3.65327C8.64321 3.28764 8.20915 2.9976 7.73143 2.79972C7.25371 2.60185 6.74169 2.5 6.22461 2.5C5.70753 2.5 5.19551 2.60185 4.71779 2.79972C4.24007 2.9976 3.80601 3.28764 3.44038 3.65327C3.07475 4.0189 2.78471 4.45296 2.58683 4.93068C2.38896 5.4084 2.28711 5.92042 2.28711 6.4375C2.28711 6.95458 2.38896 7.4666 2.58683 7.94432C2.78471 8.42204 3.07475 8.8561 3.44038 9.22173C3.80601 9.58736 4.24007 9.8774 4.71779 10.0753C5.19551 10.2732 5.70753 10.375 6.22461 10.375Z" fill="#7A4AE1"/>
</g>
<defs>
<clipPath id="clip0_6997_13980">
<path d="M0.537109 0.75H14.5371V14.75H0.537109V0.75Z" fill="white"/>
</clipPath>
</defs>
</svg>
