<svg xmlns="http://www.w3.org/2000/svg" width="28" height="28" viewBox="0 0 28 28" fill="none">
  <path d="M4.35569 12.79C9.66961 10.314 13.2071 8.66881 14.9835 7.87063C20.0393 5.60645 21.1022 5.21551 21.7854 5.19922C21.9372 5.19922 22.2712 5.2318 22.4989 5.42727C22.6811 5.59016 22.7267 5.80192 22.7571 5.96481C22.7875 6.1277 22.8178 6.46977 22.7875 6.7304C22.5141 9.82534 21.3299 17.3346 20.7225 20.7879C20.4645 22.2539 19.9634 22.7426 19.4776 22.7915C18.4149 22.8892 17.6101 22.0422 16.5929 21.3254C14.9835 20.2015 14.0878 19.5011 12.5239 18.3934C10.7172 17.1229 11.8862 16.4224 12.9187 15.2821C13.1919 14.989 17.8531 10.428 17.9442 10.0208C17.9593 9.97193 17.9593 9.77646 17.8531 9.67873C17.7468 9.58099 17.5949 9.61357 17.4735 9.64616C17.3065 9.67873 14.7558 11.5031 9.79107 15.103C9.0623 15.6405 8.40945 15.9012 7.81733 15.8848C7.16447 15.8686 5.9195 15.4939 4.97818 15.1682C3.83947 14.7772 2.92851 14.5655 3.00442 13.8813C3.04997 13.5229 3.50545 13.1646 4.35569 12.79Z" fill="white"/>
</svg>