<svg width="20" height="21" viewBox="0 0 20 21" fill="none" xmlns="http://www.w3.org/2000/svg">
<path d="M17.7668 5.39087C17.5706 5.07306 17.2484 4.84032 16.8709 4.74541C16.4925 4.65049 16.0903 4.70041 15.7517 4.88392C15.189 5.18834 14.5106 5.18799 13.9483 4.88301L13.3655 4.56699C12.838 4.28092 12.5095 3.72899 12.5095 3.12891C12.5095 2.36391 11.851 1.72266 11.0367 1.72266H8.9632C8.1489 1.72266 7.49037 2.36391 7.49037 3.12891C7.49037 3.72903 7.16193 4.28102 6.63449 4.5673L6.05245 4.88323C5.49008 5.18847 4.81152 5.18873 4.24892 4.88392C3.91032 4.70041 3.50728 4.65048 3.12898 4.74541C2.75141 4.84033 2.4293 5.07306 2.23301 5.39087L1.19772 7.07556C1.0022 7.39337 0.948999 7.77165 1.05014 8.12602C1.15127 8.48111 1.39848 8.78346 1.73709 8.96696C2.29109 9.26766 2.63616 9.84746 2.63635 10.4778L2.63649 10.9676C2.63668 11.5979 2.29179 12.1777 1.73784 12.4784C1.39923 12.6626 1.15126 12.9643 1.05014 13.3186C0.949009 13.6737 1.00219 14.052 1.19772 14.3698L2.23451 16.0545C2.43002 16.3723 2.75215 16.605 3.12973 16.7C3.50805 16.7949 3.91032 16.745 4.24967 16.5614C4.81235 16.257 5.4907 16.2574 6.05306 16.5624L6.63371 16.8773C7.16159 17.1636 7.49036 17.7159 7.49036 18.3165C7.49036 19.0815 8.1488 19.7227 8.9632 19.7227H11.0361C11.8511 19.7227 12.5089 19.0815 12.5089 18.3165C12.5093 17.7159 12.8384 17.1637 13.3663 16.8774L13.9476 16.5623C14.51 16.2573 15.1884 16.257 15.7511 16.5614C16.0904 16.7449 16.4927 16.7949 16.8703 16.7C17.2486 16.605 17.5707 16.3723 17.7662 16.0545L18.8023 14.3698C18.9978 14.052 19.051 13.6737 18.9499 13.3193C18.8487 12.9643 18.6015 12.6619 18.2629 12.4784C17.7089 12.1777 17.364 11.5979 17.364 10.9676V10.4778C17.364 9.84746 17.7089 9.26766 18.2629 8.96696C18.6015 8.78276 18.8487 8.48109 18.9499 8.12671C19.051 7.77162 18.9978 7.39335 18.8023 7.07554L17.7668 5.39087Z" stroke="#7A4AE2" stroke-width="1.7" stroke-linecap="round"/>
<path d="M13 10.7227C13 12.3796 11.6569 13.7227 10 13.7227C8.3431 13.7227 7 12.3796 7 10.7227C7 9.06576 8.3431 7.72266 10 7.72266C11.6569 7.72266 13 9.06576 13 10.7227Z" stroke="#7A4AE2" stroke-width="1.7" stroke-linecap="round"/>
</svg>
