<svg width="129" height="18" viewBox="0 0 129 18" fill="none" xmlns="http://www.w3.org/2000/svg">
<path d="M24.7242 17.1876C19.4433 17.1876 16.0342 9.92323 16.0342 4.30813C16.0342 -1.3404 22.9652 1.41755 24.7576 3.20999C26.5697 1.39797 33.4143 -1.3404 33.4143 4.30813C33.4143 9.92323 30.0385 17.1876 24.7242 17.1876ZM24.7576 14.0703C27.6655 14.0703 29.1027 11.138 29.1027 7.7957C29.1027 4.4868 26.4598 4.91699 24.7911 6.58573C23.1288 4.9235 20.3458 4.4868 20.3458 7.7957C20.3458 11.138 21.783 14.0703 24.7576 14.0703Z" fill="#7A4AE2"/>
<path d="M116.675 17.1876C116.495 17.1876 116.348 17.1304 116.234 17.0161C116.12 16.9017 116.062 16.7547 116.062 16.575V0.647744C116.062 0.468052 116.12 0.32103 116.234 0.206681C116.348 0.0923313 116.495 0.0351562 116.675 0.0351562H128.118C128.298 0.0351562 128.445 0.0923313 128.559 0.206681C128.674 0.32103 128.731 0.468052 128.731 0.647744V2.95107C128.731 3.13076 128.674 3.27778 128.559 3.39213C128.445 3.50648 128.298 3.56366 128.118 3.56366H120.302V6.87163H127.579C127.759 6.87163 127.906 6.93697 128.02 7.06765C128.135 7.182 128.192 7.32902 128.192 7.50872V9.64052C128.192 9.80388 128.135 9.9509 128.02 10.0816C127.906 10.1959 127.759 10.2531 127.579 10.2531H120.302V13.6591H128.314C128.494 13.6591 128.641 13.7163 128.755 13.8306C128.87 13.945 128.927 14.092 128.927 14.2717V16.575C128.927 16.7547 128.87 16.9017 128.755 17.0161C128.641 17.1304 128.494 17.1876 128.314 17.1876H116.675Z" fill="#7A4AE2"/>
<path d="M96.4065 17.1876C96.2432 17.1876 96.0962 17.1304 95.9655 17.0161C95.8511 16.9017 95.7939 16.7547 95.7939 16.575V0.647744C95.7939 0.468052 95.8511 0.32103 95.9655 0.206681C96.0962 0.0923313 96.2432 0.0351562 96.4065 0.0351562H99.0529C99.3143 0.0351562 99.5103 0.108667 99.641 0.255688C99.788 0.386373 99.8779 0.492557 99.9105 0.574235L104.223 8.31733L108.536 0.574235C108.585 0.492557 108.666 0.386373 108.781 0.255688C108.911 0.108667 109.116 0.0351562 109.393 0.0351562H112.015C112.195 0.0351562 112.342 0.0923313 112.456 0.206681C112.587 0.32103 112.652 0.468052 112.652 0.647744V16.575C112.652 16.7547 112.587 16.9017 112.456 17.0161C112.342 17.1304 112.195 17.1876 112.015 17.1876H109.099C108.92 17.1876 108.764 17.1304 108.634 17.0161C108.519 16.9017 108.462 16.7547 108.462 16.575V7.3862L105.693 12.5074C105.628 12.6544 105.53 12.7851 105.399 12.8995C105.269 13.0138 105.089 13.071 104.86 13.071H103.586C103.357 13.071 103.178 13.0138 103.047 12.8995C102.916 12.7851 102.81 12.6544 102.728 12.5074L99.9595 7.3862V16.575C99.9595 16.7547 99.9024 16.9017 99.788 17.0161C99.6737 17.1304 99.5266 17.1876 99.3469 17.1876H96.4065Z" fill="#7A4AE2"/>
<path d="M88.4622 17.1876C88.2825 17.1876 88.1355 17.1304 88.0211 17.0161C87.9068 16.9017 87.8496 16.7547 87.8496 16.575V0.647744C87.8496 0.468052 87.9068 0.32103 88.0211 0.206681C88.1355 0.0923313 88.2825 0.0351562 88.4622 0.0351562H91.7457C91.9254 0.0351562 92.0724 0.0923313 92.1867 0.206681C92.3011 0.32103 92.3582 0.468052 92.3582 0.647744V16.575C92.3582 16.7547 92.3011 16.9017 92.1867 17.0161C92.0724 17.1304 91.9254 17.1876 91.7457 17.1876H88.4622Z" fill="#7A4AE2"/>
<path d="M76.8016 17.1876C76.6219 17.1876 76.4749 17.1304 76.3606 17.0161C76.2462 16.9017 76.189 16.7547 76.189 16.575V3.8822H71.8274C71.6477 3.8822 71.5007 3.82503 71.3864 3.71068C71.272 3.57999 71.2148 3.43297 71.2148 3.26962V0.647744C71.2148 0.468052 71.272 0.32103 71.3864 0.206681C71.5007 0.0923313 71.6477 0.0351562 71.8274 0.0351562H85.0103C85.19 0.0351562 85.337 0.0923313 85.4514 0.206681C85.5657 0.32103 85.6229 0.468052 85.6229 0.647744V3.26962C85.6229 3.43297 85.5657 3.57999 85.4514 3.71068C85.337 3.82503 85.19 3.8822 85.0103 3.8822H80.6487V16.575C80.6487 16.7547 80.5915 16.9017 80.4772 17.0161C80.3628 17.1304 80.2158 17.1876 80.0361 17.1876H76.8016Z" fill="#7A4AE2"/>
<path d="M55.554 17.6344C55.3743 17.6344 55.2273 17.5772 55.1129 17.4628C54.9986 17.3485 54.9414 17.2015 54.9414 17.0218V1.09452C54.9414 0.914828 54.9986 0.767808 55.1129 0.653459C55.2273 0.539109 55.3743 0.481934 55.554 0.481934H66.9971C67.1768 0.481934 67.3238 0.539109 67.4382 0.653459C67.5525 0.767808 67.6097 0.914828 67.6097 1.09452V3.39785C67.6097 3.57754 67.5525 3.72456 67.4382 3.83891C67.3238 3.95326 67.1768 4.01043 66.9971 4.01043H59.1805V7.3184H66.458C66.6377 7.3184 66.7847 7.38374 66.8991 7.51443C67.0134 7.62878 67.0706 7.7758 67.0706 7.95549V10.0873C67.0706 10.2507 67.0134 10.3977 66.8991 10.5284C66.7847 10.6427 66.6377 10.6999 66.458 10.6999H59.1805V14.1059H67.1931C67.3728 14.1059 67.5199 14.163 67.6342 14.2774C67.7486 14.3917 67.8057 14.5388 67.8057 14.7184V17.0218C67.8057 17.2015 67.7486 17.3485 67.6342 17.4628C67.5199 17.5772 67.3728 17.6344 67.1931 17.6344H55.554Z" fill="#7A4AE2"/>
<path d="M35.2854 17.6344C35.1221 17.6344 34.9751 17.5772 34.8444 17.4628C34.73 17.3485 34.6729 17.2015 34.6729 17.0218V1.09452C34.6729 0.914828 34.73 0.767808 34.8444 0.653459C34.9751 0.539109 35.1221 0.481934 35.2854 0.481934H37.9318C38.1932 0.481934 38.3892 0.555444 38.5199 0.702465C38.6669 0.83315 38.7568 0.939332 38.7894 1.02101L43.102 8.76411L47.4147 1.02101C47.4637 0.939332 47.5453 0.83315 47.6597 0.702465C47.7904 0.555444 47.9946 0.481934 48.2723 0.481934H50.8941C51.0738 0.481934 51.2209 0.539109 51.3352 0.653459C51.4659 0.767808 51.5312 0.914828 51.5312 1.09452V17.0218C51.5312 17.2015 51.4659 17.3485 51.3352 17.4628C51.2209 17.5772 51.0738 17.6344 50.8941 17.6344H47.9782C47.7985 17.6344 47.6434 17.5772 47.5127 17.4628C47.3983 17.3485 47.3411 17.2015 47.3411 17.0218V7.83297L44.5723 12.9542C44.5069 13.1012 44.4089 13.2319 44.2782 13.3463C44.1475 13.4606 43.9678 13.5178 43.7391 13.5178H42.465C42.2363 13.5178 42.0566 13.4606 41.9259 13.3463C41.7952 13.2319 41.689 13.1012 41.6073 12.9542L38.8384 7.83297V17.0218C38.8384 17.2015 38.7813 17.3485 38.6669 17.4628C38.5526 17.5772 38.4055 17.6344 38.2259 17.6344H35.2854Z" fill="#7A4AE2"/>
<path d="M7.40005 17.8796C5.76648 17.8796 4.41063 17.6509 3.33247 17.1935C2.25432 16.7197 1.43754 16.1071 0.882125 15.3557C0.326713 14.6043 0.0326713 13.8038 0 12.9544C0 12.8237 0.0490069 12.7093 0.147021 12.6113C0.26137 12.497 0.392056 12.4398 0.539077 12.4398H3.62651C3.85521 12.4398 4.02674 12.4806 4.14109 12.5623C4.27177 12.644 4.38612 12.7502 4.48414 12.8809C4.61482 13.1259 4.79451 13.3628 5.02321 13.5915C5.26825 13.8202 5.57863 14.008 5.95434 14.155C6.3464 14.2857 6.8283 14.3511 7.40005 14.3511C8.34752 14.3511 9.05812 14.204 9.53185 13.91C10.0219 13.616 10.267 13.2157 10.267 12.7093C10.267 12.3499 10.1363 12.0559 9.8749 11.8272C9.61353 11.5822 9.1888 11.3698 8.60072 11.1901C8.02897 10.9941 7.2612 10.7981 6.29739 10.602C5.05588 10.3407 3.99407 10.0058 3.11194 9.59739C2.24615 9.17266 1.58456 8.62542 1.12716 7.95566C0.669762 7.26956 0.441063 6.42011 0.441063 5.40729C0.441063 4.41082 0.718769 3.52053 1.27418 2.73642C1.84593 1.9523 2.63821 1.33972 3.65102 0.898655C4.66383 0.457592 5.8645 0.237061 7.25303 0.237061C8.38019 0.237061 9.3685 0.384082 10.2179 0.678124C11.0837 0.972165 11.8107 1.36422 12.3988 1.85429C12.9868 2.34436 13.4279 2.8671 13.7219 3.42251C14.0323 3.96159 14.1957 4.4925 14.212 5.01524C14.212 5.14592 14.163 5.26844 14.065 5.38279C13.967 5.48081 13.8445 5.52981 13.6974 5.52981H10.463C10.2833 5.52981 10.1281 5.49714 9.99742 5.4318C9.86673 5.36646 9.75238 5.26027 9.65437 5.11325C9.55636 4.75387 9.29498 4.44349 8.87026 4.18212C8.46187 3.90441 7.92279 3.76556 7.25303 3.76556C6.53426 3.76556 5.97068 3.89625 5.56229 4.15762C5.17023 4.40265 4.97421 4.78654 4.97421 5.30928C4.97421 5.63599 5.08039 5.92187 5.29275 6.1669C5.52145 6.41194 5.889 6.6243 6.39541 6.80399C6.91815 6.98368 7.62875 7.17154 8.52721 7.36757C10.0138 7.64528 11.2144 7.9965 12.1292 8.42122C13.044 8.82961 13.7138 9.36869 14.1385 10.0385C14.5632 10.6919 14.7756 11.5168 14.7756 12.5133C14.7756 13.6241 14.4571 14.5879 13.82 15.4047C13.1992 16.2052 12.3334 16.8177 11.2226 17.2425C10.1118 17.6672 8.83759 17.8796 7.40005 17.8796Z" fill="#7A4AE2"/>
</svg>
